<?xml version="1.0" encoding="utf-8"?>
<svg xmlns="http://www.w3.org/2000/svg"
	xmlns:xlink="http://www.w3.org/1999/xlink"
	width="45px" height="45px" viewBox="0 0 45 45">
<path fillRule="evenodd" d="M 40.43 37.98C 40.43 37.98 33.82 37.98 33.82 37.98 33.82 37.98 32.96 44.83 32.96 44.83 32.96 44.83 31.55 44.83 31.55 44.83 31.55 44.83 32.58 36.55 32.58 36.55 32.58 36.55 40.43 36.55 40.43 36.55 42.12 36.55 43.5 35.15 43.5 33.43 43.5 33.43 43.5 19.46 43.5 19.46 42.75 19.63 41.63 19.91 40.65 20.21 39.68 20.5 38.05 21.24 38.05 22.85 38.05 22.85 38.05 32.7 38.05 32.7 38.05 32.7 30.82 32.7 30.82 32.7 30.17 32.7 29.64 33.24 29.64 33.9 29.64 33.9 29.64 44.83 29.64 44.83 29.64 44.83 28.22 44.83 28.22 44.83 28.22 44.83 28.22 33.9 28.22 33.9 28.22 32.44 29.39 31.26 30.82 31.26 30.82 31.26 36.63 31.26 36.63 31.26 36.63 31.26 36.63 22.85 36.63 22.85 36.63 20.99 37.95 19.52 40.24 18.83 41.95 18.31 43.98 17.88 44.07 17.86 44.07 17.86 44.92 17.68 44.92 17.68 44.92 17.68 44.92 33.43 44.92 33.43 44.92 35.94 42.91 37.98 40.43 37.98ZM 40.62 17.66C 40.62 17.66 36.69 17.66 36.69 17.66 36.69 17.66 36.69 15.26 36.69 15.26 36.69 15.26 34.71 15.26 34.71 15.26 34.71 15.26 36.7 10.64 36.7 10.64 36.78 8.41 38.59 6.63 40.81 6.63 40.81 6.63 40.81 6.63 40.81 6.63 43.08 6.63 44.92 8.5 44.92 10.8 44.92 10.8 44.92 13.29 44.92 13.29 44.92 15.7 42.99 17.66 40.62 17.66ZM 43.5 10.8C 43.5 9.29 42.29 8.07 40.81 8.07 40.81 8.07 40.81 8.07 40.81 8.07 39.32 8.07 38.11 9.29 38.11 10.8 38.11 10.8 38.11 10.95 38.11 10.95 38.11 10.95 36.88 13.82 36.88 13.82 36.88 13.82 38.11 13.82 38.11 13.82 38.11 13.82 38.11 16.22 38.11 16.22 38.11 16.22 40.62 16.22 40.62 16.22 42.21 16.22 43.5 14.91 43.5 13.29 43.5 13.29 43.5 13.29 43.5 13.29 43.5 13.29 43.5 10.8 43.5 10.8ZM 32.06 14.86C 32.06 14.86 15.51 14.86 15.51 14.86 15.51 14.86 15.51 3.83 15.51 3.83 15.51 3.83 26.67 3.83 26.67 3.83 26.67 3.83 26.67 1.44 26.67 1.44 26.67 1.44 12.96 1.44 12.96 1.44 12.96 1.44 12.96 4.16 12.96 4.16 12.96 4.16 11.1 6.47 11.1 6.47 11.1 6.47 12.96 6.47 12.96 6.47 12.96 6.47 12.96 9.59 12.96 9.59 12.96 9.59 14.5 9.59 14.5 9.59 14.5 9.59 14.5 11.03 14.5 11.03 14.5 11.03 11.54 11.03 11.54 11.03 11.54 11.03 11.54 7.91 11.54 7.91 11.54 7.91 8.1 7.91 8.1 7.91 8.1 7.91 11.54 3.65 11.54 3.65 11.54 3.65 11.54-0 11.54-0 11.54-0 28.09-0 28.09-0 28.09-0 28.09 3.83 28.09 3.83 28.09 3.83 32.06 3.83 32.06 3.83 32.06 3.83 32.06 7.49 32.06 7.49 32.06 7.49 35.5 11.75 35.5 11.75 35.5 11.75 32.06 11.75 32.06 11.75 32.06 11.75 32.06 14.86 32.06 14.86ZM 32.5 10.31C 32.5 10.31 30.64 8 30.64 8 30.64 8 30.64 5.27 30.64 5.27 30.64 5.27 16.93 5.27 16.93 5.27 16.93 5.27 16.93 9.59 16.93 9.59 16.93 9.59 26.67 9.59 26.67 9.59 26.67 9.59 26.67 6.2 26.67 6.2 26.67 6.2 28.09 6.2 28.09 6.2 28.09 6.2 28.09 11.03 28.09 11.03 28.09 11.03 16.93 11.03 16.93 11.03 16.93 11.03 16.93 13.42 16.93 13.42 16.93 13.42 30.64 13.42 30.64 13.42 30.64 13.42 30.64 10.31 30.64 10.31 30.64 10.31 32.5 10.31 32.5 10.31ZM 10.21 15.26C 10.21 15.26 8.23 15.26 8.23 15.26 8.23 15.26 8.23 17.66 8.23 17.66 8.23 17.66 4.31 17.66 4.31 17.66 1.93 17.66 0 15.7 0 13.29 0 13.29 0 10.8 0 10.8 0 8.5 1.85 6.63 4.12 6.63 4.12 6.63 4.12 6.63 4.12 6.63 6.33 6.63 8.15 8.41 8.23 10.64 8.23 10.64 10.21 15.26 10.21 15.26ZM 6.81 10.95C 6.81 10.95 6.81 10.8 6.81 10.8 6.81 9.29 5.6 8.07 4.12 8.07 4.12 8.07 4.12 8.07 4.12 8.07 2.63 8.07 1.42 9.29 1.42 10.8 1.42 10.8 1.42 13.29 1.42 13.29 1.42 14.91 2.72 16.22 4.31 16.22 4.31 16.22 6.81 16.22 6.81 16.22 6.81 16.22 6.81 13.82 6.81 13.82 6.81 13.82 8.05 13.82 8.05 13.82 8.05 13.82 6.81 10.95 6.81 10.95ZM 4.68 18.83C 6.98 19.52 8.29 20.99 8.29 22.85 8.29 22.85 8.29 31.26 8.29 31.26 8.29 31.26 14.1 31.26 14.1 31.26 15.53 31.26 16.7 32.44 16.7 33.9 16.7 33.9 16.7 44.83 16.7 44.83 16.7 44.83 15.28 44.83 15.28 44.83 15.28 44.83 15.28 33.9 15.28 33.9 15.28 33.24 14.75 32.7 14.1 32.7 14.1 32.7 6.88 32.7 6.88 32.7 6.88 32.7 6.88 22.85 6.88 22.85 6.88 21.24 5.25 20.5 4.28 20.21 3.29 19.91 2.17 19.63 1.42 19.46 1.42 19.46 1.42 33.43 1.42 33.43 1.42 35.15 2.8 36.55 4.5 36.55 4.5 36.55 12.35 36.55 12.35 36.55 12.35 36.55 13.37 44.83 13.37 44.83 13.37 44.83 11.97 44.83 11.97 44.83 11.97 44.83 11.1 37.98 11.1 37.98 11.1 37.98 4.5 37.98 4.5 37.98 2.02 37.98 0 35.94 0 33.43 0 33.43 0 17.68 0 17.68 0 17.68 0.86 17.86 0.86 17.86 0.94 17.88 2.97 18.31 4.68 18.83ZM 19.2 18.79C 19.2 18.79 19.2 20.23 19.2 20.23 19.2 20.23 17.78 20.23 17.78 20.23 17.78 20.23 17.78 18.79 17.78 18.79 17.78 18.79 19.2 18.79 19.2 18.79ZM 23.17 18.79C 23.17 18.79 23.17 20.23 23.17 20.23 23.17 20.23 21.75 20.23 21.75 20.23 21.75 20.23 21.75 18.79 21.75 18.79 21.75 18.79 23.17 18.79 23.17 18.79ZM 27.14 18.79C 27.14 18.79 27.14 20.23 27.14 20.23 27.14 20.23 25.72 20.23 25.72 20.23 25.72 20.23 25.72 18.79 25.72 18.79 25.72 18.79 27.14 18.79 27.14 18.79ZM 10.64 23.97C 10.64 23.97 34.28 23.97 34.28 23.97 34.28 23.97 34.28 28.29 34.28 28.29 34.28 28.29 24.85 28.29 24.85 28.29 24.85 28.29 24.85 44.83 24.85 44.83 24.85 44.83 23.43 44.83 23.43 44.83 23.43 44.83 23.43 28.29 23.43 28.29 23.43 28.29 22.01 28.29 22.01 28.29 22.01 28.29 22.01 44.83 22.01 44.83 22.01 44.83 20.59 44.83 20.59 44.83 20.59 44.83 20.59 28.29 20.59 28.29 20.59 28.29 10.64 28.29 10.64 28.29 10.64 28.29 10.64 23.97 10.64 23.97ZM 12.06 26.85C 12.06 26.85 32.86 26.85 32.86 26.85 32.86 26.85 32.86 26.85 32.86 26.85 32.86 26.85 32.86 25.41 32.86 25.41 32.86 25.41 12.06 25.41 12.06 25.41 12.06 25.41 12.06 26.85 12.06 26.85Z" fill="rgb(41,41,41)"/></svg>