<?xml version="1.0" encoding="utf-8"?>
<svg xmlns="http://www.w3.org/2000/svg"
	xmlns:xlink="http://www.w3.org/1999/xlink"
	width="28px" height="28px" viewBox="0 0 28 28">
<path fillRule="evenodd" d="M 3.6-0C 3.6-0 24.41-0 24.41-0 26.38-0 28 1.62 28 3.59 28 3.59 28 24.41 28 24.41 28 26.38 26.38 28 24.41 28 24.41 28 3.6 28 3.6 28 1.62 28-0 26.38-0 24.41-0 24.41-0 3.59-0 3.59-0 1.62 1.62-0 3.6-0ZM 20.4 3.11C 19.7 3.11 19.14 3.68 19.14 4.37 19.14 4.37 19.14 7.39 19.14 7.39 19.14 8.08 19.7 8.65 20.4 8.65 20.4 8.65 23.56 8.65 23.56 8.65 24.25 8.65 24.82 8.08 24.82 7.39 24.82 7.39 24.82 4.37 24.82 4.37 24.82 3.68 24.25 3.11 23.56 3.11 23.56 3.11 20.4 3.11 20.4 3.11ZM 24.83 11.84C 24.83 11.84 22.37 11.84 22.37 11.84 22.6 12.6 22.73 13.41 22.73 14.24 22.73 18.9 18.83 22.68 14.03 22.68 9.22 22.68 5.32 18.9 5.32 14.24 5.32 13.41 5.45 12.6 5.68 11.84 5.68 11.84 3.11 11.84 3.11 11.84 3.11 11.84 3.11 23.67 3.11 23.67 3.11 24.28 3.61 24.78 4.22 24.78 4.22 24.78 23.72 24.78 23.72 24.78 24.34 24.78 24.83 24.28 24.83 23.67 24.83 23.67 24.83 11.84 24.83 11.84ZM 14.03 8.49C 10.92 8.49 8.4 10.93 8.4 13.94 8.4 16.95 10.92 19.39 14.03 19.39 17.13 19.39 19.65 16.95 19.65 13.94 19.65 10.93 17.13 8.49 14.03 8.49Z" fill="rgb(255,255,255)"/></svg>