<?xml version="1.0" encoding="utf-8"?>
<svg xmlns="http://www.w3.org/2000/svg"
	xmlns:xlink="http://www.w3.org/1999/xlink"
	width="45px" height="45px" viewBox="0 0 45 45">
<path fillRule="evenodd" d="M 43.33 35.99C 43.33 35.99 41.37 36.48 41.37 36.48 41.37 36.48 38.48 30.16 38.48 30.16 38.48 30.16 37.58 22.07 37.58 22.07 37.58 22.07 38.92 22.26 38.92 22.26 39 22.27 39.09 22.28 39.18 22.28 39.97 22.28 40.68 21.78 40.94 21.02 41.11 20.5 41.05 19.93 40.76 19.46 40.47 18.99 39.99 18.68 39.44 18.6 39.44 18.6 37.77 18.37 37.77 18.37 37.77 18.37 37.77 3.61 37.77 3.61 37.77 1.62 36.14-0 34.14-0 34.14-0 3.63-0 3.63-0 1.63-0-0 1.62-0 3.61-0 5.36 1.25 6.82 2.91 7.15 2.91 7.15 2.91 44.8 2.91 44.8 2.91 44.8 31.93 44.8 31.93 44.8 31.93 44.8 31.99 45 31.99 45 31.99 45 33.39 44.6 33.39 44.6 33.39 44.6 32.14 40.26 32.14 40.26 32.14 40.26 32.55 40.16 32.55 40.16 32.55 40.16 41.98 37.82 41.98 37.82 41.98 37.82 42.38 37.72 42.38 37.72 42.38 37.72 43.62 41.42 43.62 41.42 43.62 41.42 45 40.96 45 40.96 45 40.96 43.33 35.99 43.33 35.99ZM 37.73 19.82C 37.73 19.82 39.24 20.04 39.24 20.04 39.4 20.06 39.48 20.16 39.52 20.22 39.56 20.28 39.61 20.4 39.56 20.56 39.5 20.74 39.31 20.85 39.12 20.83 39.12 20.83 37.6 20.61 37.6 20.61 37.6 20.61 37.73 19.82 37.73 19.82ZM 34.14 1.45C 35.34 1.45 36.32 2.42 36.32 3.61 36.32 3.61 36.32 16.51 36.32 16.51 36.32 16.51 34.87 15.66 34.87 15.66 34.87 15.66 34.87 5.78 34.87 5.78 34.87 5.78 34.14 5.78 34.14 5.78 32.94 5.78 31.96 4.81 31.96 3.61 31.96 2.42 32.94 1.45 34.14 1.45ZM 26.72 19.07C 26.72 19.07 23.22 18.57 23.22 18.57 23.22 18.57 22.9 17.93 22.9 17.93 22.86 17.85 22.81 17.77 22.76 17.69 22.76 17.69 26.21 18.18 26.21 18.18 26.21 18.18 26.21 18.19 26.21 18.19 26.21 18.19 35.74 19.54 35.74 19.54 35.74 19.54 36.29 19.62 36.29 19.62 36.29 19.62 36.16 20.41 36.16 20.41 36.16 20.41 33.91 20.09 33.91 20.09 33.91 20.09 26.72 19.07 26.72 19.07ZM 28.15 21.56C 28.15 21.56 26.81 22.89 26.81 22.89 26.81 22.89 24.54 21.2 24.54 21.2 24.54 21.2 24.01 20.14 24.01 20.14 24.01 20.14 27.63 20.66 27.63 20.66 27.63 20.66 28.15 21.56 28.15 21.56ZM 20.12 15.93C 20.12 15.93 17.78 16.71 17.78 16.71 17.67 16.72 17.55 16.73 17.44 16.75 17.44 16.71 17.43 16.66 17.43 16.62 17.43 15.08 17.98 13.66 18.89 12.54 19.5 13.3 19.95 14.21 20.18 15.2 20.17 15.21 20.17 15.22 20.17 15.23 20.11 15.46 20.1 15.7 20.12 15.93ZM 18.4 19.29C 18.4 19.29 18.51 20.19 18.51 20.19 18.1 19.57 17.81 18.9 17.63 18.19 17.73 18.17 17.83 18.16 17.94 18.14 17.94 18.14 18.42 18.62 18.42 18.62 18.39 18.84 18.37 19.06 18.4 19.29ZM 17.85 21.72C 16.71 22.62 15.29 23.12 13.8 23.12 13.37 23.12 12.95 23.08 12.55 23 13.03 21.03 14.4 19.42 16.25 18.62 16.54 19.76 17.09 20.81 17.85 21.72ZM 16.01 17.15C 13.61 18.06 11.8 20.08 11.16 22.56 8.87 21.55 7.26 19.27 7.26 16.62 7.26 13.03 10.2 10.12 13.8 10.12 15.32 10.12 16.73 10.64 17.85 11.52 16.68 12.9 15.98 14.68 15.98 16.62 15.98 16.8 16 16.97 16.01 17.15ZM 12.36 24.43C 12.83 24.52 13.31 24.57 13.8 24.57 15.66 24.57 17.42 23.92 18.84 22.78 18.84 22.78 18.92 23.46 18.92 23.46 18.92 23.46 24.04 28.55 24.04 28.55 22.8 30.13 20.92 31.07 18.89 31.07 15.28 31.07 12.35 28.15 12.35 24.57 12.35 24.52 12.35 24.48 12.36 24.43ZM 19.92 11.52C 21.04 10.64 22.44 10.12 23.97 10.12 25.71 10.12 27.34 10.82 28.54 11.99 28.54 11.99 27.68 11.49 27.68 11.49 27.68 11.49 21.55 13.71 21.55 13.71 21.45 13.74 21.37 13.79 21.28 13.84 20.96 12.98 20.5 12.2 19.92 11.52ZM 21.58 15.58C 21.64 15.34 21.81 15.15 22.04 15.07 22.04 15.07 27.53 13.08 27.53 13.08 27.53 13.08 35.64 17.78 35.64 17.78 35.64 17.78 35.67 18.07 35.67 18.07 35.67 18.07 32.06 17.56 32.06 17.56 32.06 17.56 27.12 16.85 27.12 16.85 27.12 16.85 26.53 15.82 26.53 15.82 26.53 15.82 23.46 16.33 23.46 16.33 23.46 16.33 21.62 16.07 21.62 16.07 21.55 15.92 21.53 15.75 21.58 15.58ZM 1.45 3.61C 1.45 2.42 2.43 1.45 3.63 1.45 3.63 1.45 31.25 1.45 31.25 1.45 30.79 2.05 30.51 2.8 30.51 3.61 30.51 4.43 30.79 5.18 31.25 5.78 31.25 5.78 3.63 5.78 3.63 5.78 2.43 5.78 1.45 4.81 1.45 3.61ZM 30.33 39.22C 30.33 39.22 31.52 43.36 31.52 43.36 31.52 43.36 4.36 43.36 4.36 43.36 4.36 43.36 4.36 7.23 4.36 7.23 4.36 7.23 33.41 7.23 33.41 7.23 33.41 7.23 33.41 14.82 33.41 14.82 33.41 14.82 31.36 13.63 31.36 13.63 30.14 10.65 27.21 8.67 23.97 8.67 22.04 8.67 20.27 9.36 18.89 10.49 17.49 9.35 15.71 8.67 13.8 8.67 9.4 8.67 5.81 12.24 5.81 16.62 5.81 19.99 7.94 22.87 10.92 24.03 10.91 24.21 10.9 24.39 10.9 24.57 10.9 28.95 14.48 32.52 18.89 32.52 21.31 32.52 23.57 31.43 25.08 29.58 25.08 29.58 25.68 30.17 25.68 30.17 25.68 30.17 30.61 34.38 30.61 34.38 30.61 34.38 32.09 38.79 32.09 38.79 32.09 38.79 30.33 39.22 30.33 39.22ZM 36.83 37.61C 36.83 37.61 33.5 38.43 33.5 38.43 33.5 38.43 31.86 33.54 31.86 33.54 31.86 33.54 26.66 29.12 26.66 29.12 26.66 29.12 20.3 22.79 20.3 22.79 20.3 22.79 19.84 19.11 19.84 19.11 19.83 18.99 19.84 18.86 19.87 18.75 19.87 18.75 19.9 18.66 19.9 18.66 19.97 18.48 20.09 18.33 20.24 18.23 20.62 17.99 21.17 18.06 21.47 18.39 21.52 18.45 21.57 18.51 21.6 18.58 21.6 18.58 22.26 19.89 22.26 19.89 22.26 19.89 23.4 22.15 23.4 22.15 23.4 22.15 26.94 24.8 26.94 24.8 26.94 24.8 29.96 21.8 29.96 21.8 29.96 21.8 29.45 20.92 29.45 20.92 29.45 20.92 36.09 21.86 36.09 21.86 36.09 21.86 37.05 30.43 37.05 30.43 37.05 30.43 39.94 36.83 39.94 36.83 39.94 36.83 36.83 37.61 36.83 37.61Z" fill="rgb(41,41,41)"/></svg>