<?xml version="1.0" encoding="utf-8"?>
<svg xmlns="http://www.w3.org/2000/svg"
	xmlns:xlink="http://www.w3.org/1999/xlink"
	width="40px" height="23px" viewBox="0 0 40 23">
<path fillRule="evenodd" d="M 34.43 14.01C 35.75 15.27 37.15 16.46 38.34 17.85 38.87 18.46 39.37 19.1 39.75 19.82 40.29 20.83 39.8 21.95 38.86 22.02 38.86 22.02 33.03 22.01 33.03 22.01 31.53 22.13 30.33 21.55 29.32 20.55 28.52 19.75 27.77 18.89 26.99 18.07 26.68 17.73 26.34 17.41 25.95 17.16 25.15 16.66 24.46 16.81 24 17.62 23.54 18.44 23.44 19.35 23.39 20.26 23.33 21.6 22.91 21.95 21.54 22.01 18.59 22.15 15.79 21.71 13.2 20.27 10.91 18.99 9.13 17.19 7.59 15.15 4.58 11.18 2.27 6.82 0.2 2.34-0.26 1.33 0.08 0.79 1.22 0.77 3.12 0.73 5.02 0.74 6.93 0.77 7.7 0.78 8.21 1.21 8.51 1.92 9.54 4.38 10.8 6.72 12.38 8.9 12.8 9.47 13.23 10.05 13.84 10.46 14.51 10.91 15.03 10.76 15.34 10.03 15.55 9.56 15.63 9.06 15.68 8.56 15.83 6.85 15.85 5.14 15.59 3.44 15.42 2.37 14.81 1.68 13.72 1.48 13.16 1.38 13.24 1.17 13.51 0.87 13.98 0.33 14.42-0 15.3-0 15.3-0 21.89-0 21.89-0 22.92 0.2 23.15 0.65 23.29 1.67 23.29 1.67 23.3 8.79 23.3 8.79 23.29 9.18 23.5 10.35 24.23 10.61 24.81 10.8 25.2 10.34 25.54 9.98 27.12 8.35 28.25 6.43 29.25 4.43 29.7 3.56 30.08 2.65 30.45 1.74 30.73 1.06 31.16 0.73 31.94 0.74 31.94 0.74 38.28 0.75 38.28 0.75 38.47 0.75 38.66 0.75 38.84 0.78 39.91 0.96 40.2 1.41 39.87 2.42 39.35 4.02 38.34 5.34 37.35 6.68 36.3 8.1 35.16 9.48 34.12 10.91 33.15 12.22 33.23 12.88 34.43 14.01 34.43 14.01 34.43 14.01 34.43 14.01Z" fill="#fff"/></svg>