<svg version="1" xmlns="http://www.w3.org/2000/svg" width="933.333" height="933.333" viewBox="0 0 700.000000 700.000000"><path d="M333 56.6c-1.9.2-8.2.8-14 1.4-34.1 3.3-71.8 16.1-104 35.3C144.6 135.2 93.9 210.7 78.6 296c-3.4 19.2-4.1 28.1-4.1 53.5 0 33.5 2 49.2 10.2 81.7 3.4 13.2 3 14.9-4.7 19.4-3.3 2-20.1 8.2-42.5 15.6l-37 12.3 168.5.3 168.4.2 5.1-4.8c6.7-6.5 10.3-8.9 17.1-11.2 19.1-6.6 41.7 3.1 51.4 22.1 4.5 8.7 6.2 23.8 3.9 33.9-4 17.4-18.7 31.3-36.3 34.3-12.1 2-25.9-2.4-35.2-11.4l-3-2.9-100.9.2-100.9.3 6.4 7.5c63.6 75 157.9 109.6 251.6 92.5 134-24.6 231.9-153.6 227.1-299-1-29.6-4.9-53.4-13.4-81.4-3.2-10.7-2.7-12.1 6.3-16.3 5.9-2.7 34.1-10.2 71.9-19l10-2.3-170-.3-169.9-.2-4.5 4.5c-16 16.3-41.8 15.9-58.7-1-9.4-9.3-13.4-19.3-13.4-33.5s4-24.2 13.4-33.6c10.1-10.1 24.2-15 36.3-12.6 8.1 1.7 17.5 6.5 22.5 11.7l4.3 4.5h200.6l-1.9-2.8c-1.1-1.5-6.7-7.9-12.4-14.2-42.2-46.5-100.1-77.2-161.5-85.6-10.6-1.4-43.4-2.6-50.3-1.8zm-91.2 249.6c6.6 2.5 14.4 8.7 19.6 15.6l3.9 5.2h214.6l4-5.4c16.1-21.8 45-24.2 64.1-5.4 22.3 21.9 16.2 62.2-11.5 75.9-18.6 9.2-39.7 3.7-52.6-13.7l-4-5.4H265.1l-3 4.4c-21.1 30.7-65.8 22.6-76.8-13.8-2.1-6.7-2-20.6.1-27.6 7.5-25 32.9-38.5 56.4-29.8z"/></svg>