<?xml version="1.0" encoding="utf-8"?>
<svg xmlns="http://www.w3.org/2000/svg"
	xmlns:xlink="http://www.w3.org/1999/xlink"
	width="19px" height="19px" viewBox="0 0 19 19">
<path fillRule="evenodd" d="M 18.99 14.99C 19.03 15.3 18.94 15.57 18.71 15.8 18.71 15.8 16.03 18.46 16.03 18.46 15.91 18.59 15.76 18.71 15.56 18.8 15.37 18.9 15.18 18.96 14.99 18.98 14.97 18.98 14.93 18.99 14.87 18.99 14.8 19 14.71 19 14.61 19 14.35 19 13.94 18.96 13.37 18.87 12.8 18.78 12.1 18.57 11.28 18.23 10.45 17.88 9.52 17.37 8.47 16.69 7.42 16 6.31 15.06 5.13 13.87 4.19 12.94 3.42 12.05 2.8 11.21 2.18 10.36 1.69 9.58 1.31 8.86 0.93 8.14 0.65 7.49 0.47 6.91 0.28 6.32 0.15 5.82 0.08 5.4 0.02 4.97-0.01 4.64 0 4.4 0.02 4.16 0.02 4.02 0.02 4 0.05 3.81 0.11 3.62 0.2 3.42 0.3 3.23 0.41 3.07 0.55 2.95 0.55 2.95 3.22 0.27 3.22 0.27 3.41 0.08 3.62-0.01 3.86-0.01 4.04-0.01 4.19 0.04 4.33 0.14 4.46 0.24 4.58 0.36 4.67 0.51 4.67 0.51 6.82 4.6 6.82 4.6 6.94 4.81 6.98 5.05 6.92 5.3 6.87 5.56 6.75 5.77 6.58 5.95 6.58 5.95 5.59 6.94 5.59 6.94 5.57 6.96 5.54 7.01 5.52 7.07 5.5 7.13 5.49 7.18 5.49 7.22 5.55 7.5 5.67 7.82 5.86 8.19 6.02 8.51 6.27 8.9 6.6 9.36 6.94 9.83 7.41 10.36 8.03 10.96 8.63 11.58 9.17 12.06 9.64 12.41 10.11 12.75 10.5 13 10.81 13.16 11.13 13.32 11.37 13.42 11.54 13.45 11.54 13.45 11.79 13.5 11.79 13.5 11.82 13.5 11.86 13.49 11.92 13.47 11.98 13.45 12.02 13.43 12.05 13.4 12.05 13.4 13.2 12.23 13.2 12.23 13.44 12.02 13.72 11.91 14.04 11.91 14.27 11.91 14.45 11.95 14.59 12.03 14.59 12.03 14.61 12.03 14.61 12.03 14.61 12.03 18.49 14.33 18.49 14.33 18.77 14.5 18.94 14.73 18.99 14.99Z" fill="rgb(255,127,0)"/></svg>