<?xml version="1.0" encoding="utf-8"?>
<svg xmlns="http://www.w3.org/2000/svg"
	xmlns:xlink="http://www.w3.org/1999/xlink"
	width="22px" height="16px" viewBox="0 0 22 16">
<path fillRule="evenodd" d="M 21.78 0.01C 21.78 0.01 0.34 7.53 0.34 7.53-0.06 7.67-0.12 8.19 0.23 8.42 0.23 8.42 3.43 10.54 3.43 10.54 3.43 10.54 17.98 3.09 17.98 3.09 17.98 3.09 5.66 12.02 5.66 12.02 5.66 12.02 5.66 15.63 5.66 15.63 5.66 15.88 5.95 16.03 6.16 15.89 6.16 15.89 8.87 14.14 8.87 14.14 8.87 14.14 11.54 15.91 11.54 15.91 11.79 16.07 12.12 16 12.28 15.76 12.28 15.76 21.98 0.24 21.98 0.24 22.06 0.12 21.93-0.04 21.78 0.01Z" fill="rgb(255,127,0)"/></svg>