<?xml version="1.0" encoding="utf-8"?>
<svg xmlns="http://www.w3.org/2000/svg"
	xmlns:xlink="http://www.w3.org/1999/xlink"
	width="18px" height="13px" viewBox="0 0 18 13">
<path fillRule="evenodd" d="M 11.79 6.5C 11.79 6.5 18 0.92 18 0.92 18 0.92 18 12.08 18 12.08 18 12.08 11.79 6.5 11.79 6.5ZM 1.02-0C 1.02-0 16.98-0 16.98-0 16.98-0 9 7.17 9 7.17 9 7.17 1.02-0 1.02-0ZM-0 12.08C-0 12.08-0 0.92-0 0.92-0 0.92 6.21 6.5 6.21 6.5 6.21 6.5-0 12.08-0 12.08ZM 9 9.01C 9 9.01 10.77 7.42 10.77 7.42 10.77 7.42 16.98 13 16.98 13 16.98 13 1.02 13 1.02 13 1.02 13 7.23 7.42 7.23 7.42 7.23 7.42 9 9.01 9 9.01Z" fill="rgb(255,127,0)"/></svg>