<?xml version="1.0" standalone="no"?>
<!DOCTYPE svg PUBLIC "-//W3C//DTD SVG 20010904//EN"
 "http://www.w3.org/TR/2001/REC-SVG-20010904/DTD/svg10.dtd">
<svg version="1.0" xmlns="http://www.w3.org/2000/svg"
 width="512.000000pt" height="512.000000pt" viewBox="0 0 512.000000 512.000000"
 preserveAspectRatio="xMidYMid meet">

<g transform="translate(0.000000,512.000000) scale(0.100000,-0.100000)"
fill="#ff8000" stroke="none">
<path d="M132 5094 c-56 -28 -92 -67 -117 -127 -13 -32 -15 -196 -15 -1384 0
-1286 1 -1350 19 -1388 23 -51 98 -118 149 -133 27 -8 143 -12 361 -12 l321 0
0 -991 c0 -1021 0 -1016 39 -1046 12 -10 477 -12 2099 -13 l2083 0 24 25 25
24 0 331 0 331 -25 24 c-32 33 -78 33 -110 0 l-25 -24 0 -276 0 -275 -1970 0
-1970 0 0 945 0 944 598 3 597 3 47 28 c55 32 103 97 117 158 15 63 15 1416 0
1458 -20 56 -91 70 -134 26 l-25 -24 0 -719 c0 -709 0 -719 -20 -740 l-21 -22
-989 0 -989 0 -20 26 -21 27 0 1314 0 1315 29 29 30 29 981 -2 982 -3 19 -24
c18 -22 19 -45 19 -443 l0 -419 25 -24 c33 -34 83 -34 116 1 l24 26 3 314 3
314 854 0 854 0 3 -406 3 -406 24 -19 c22 -18 44 -19 427 -19 l404 0 0 -1388
0 -1389 25 -23 c32 -30 78 -30 110 0 l25 23 0 1446 0 1445 -438 439 c-240 241
-449 445 -464 453 -23 12 -166 14 -927 14 l-900 0 -11 55 c-15 74 -61 133
-129 168 l-55 27 -1006 0 -1006 0 -52 -26z m4428 -799 l285 -285 -288 0 -287
0 0 285 c0 157 1 285 3 285 1 0 130 -128 287 -285z"/>
<path d="M304 4856 c-48 -21 -54 -53 -54 -288 0 -232 7 -266 56 -286 22 -9
245 -12 902 -10 l874 3 24 28 c24 28 24 29 24 267 0 238 0 239 -24 267 l-24
28 -874 2 c-719 2 -878 0 -904 -11z m1656 -286 l0 -130 -770 0 -770 0 0 130 0
130 770 0 770 0 0 -130z"/>
<path d="M2765 4495 c-47 -46 -35 -75 89 -210 l79 -85 23 -118 c13 -64 26
-128 29 -142 8 -33 1293 -1321 1355 -1358 37 -22 57 -27 115 -27 58 0 78 5
116 27 98 58 143 135 137 239 -3 54 -10 77 -36 119 l-33 53 71 72 c69 72 80
96 64 138 -8 22 -463 451 -488 460 -48 19 -106 -24 -106 -79 0 -28 22 -53 201
-225 l200 -192 -30 -31 -31 -31 -588 586 -587 586 -160 32 c-143 27 -162 34
-184 58 -13 16 -50 56 -83 91 -51 52 -66 62 -95 62 -23 0 -42 -8 -58 -25z
m444 -359 l64 -14 379 -379 c208 -208 378 -383 378 -388 0 -6 -27 -37 -60 -70
l-60 -60 -384 384 -384 384 -12 61 c-6 34 -13 69 -16 79 -6 21 8 21 95 3z
m1138 -1088 c99 -101 186 -193 193 -206 27 -54 -21 -122 -88 -122 -33 0 -51
15 -231 195 l-196 194 60 61 c33 33 64 60 70 60 6 0 92 -82 192 -182z"/>
<path d="M283 4156 l-28 -24 -3 -179 c-4 -213 3 -248 55 -270 29 -11 74 -14
220 -11 l185 3 24 28 c24 28 24 31 24 228 0 268 19 249 -249 249 -197 0 -200
0 -228 -24z m317 -226 l0 -90 -90 0 -90 0 0 90 0 90 90 0 90 0 0 -90z"/>
<path d="M965 4155 c-25 -24 -25 -25 -25 -224 0 -197 0 -200 24 -228 l24 -28
185 -3 c146 -3 191 0 220 11 52 22 59 57 55 270 l-3 179 -28 24 c-28 24 -31
24 -228 24 -199 0 -200 0 -224 -25z m315 -225 l0 -90 -90 0 -90 0 0 90 0 90
90 0 90 0 0 -90z"/>
<path d="M1646 4149 c-26 -30 -26 -31 -26 -214 0 -101 4 -195 10 -210 18 -48
62 -57 267 -53 l185 3 24 28 c24 28 24 32 24 218 0 198 -7 238 -45 253 -9 3
-106 6 -215 6 l-198 0 -26 -31z m314 -219 l0 -90 -85 0 -85 0 0 90 0 90 85 0
85 0 0 -90z"/>
<path d="M302 3490 c-45 -18 -54 -65 -50 -267 l3 -185 28 -24 c28 -24 32 -24
218 -24 198 0 238 7 253 45 3 9 6 106 6 215 l0 198 -31 26 c-31 26 -31 26
-217 25 -103 0 -197 -4 -210 -9z m298 -245 l0 -85 -90 0 -90 0 0 85 0 85 90 0
90 0 0 -85z"/>
<path d="M985 3488 c-42 -24 -44 -36 -45 -240 0 -108 3 -204 6 -213 15 -38 55
-45 253 -45 186 0 190 0 218 24 l28 24 3 185 c4 205 -5 249 -53 267 -37 14
-385 12 -410 -2z m295 -243 l0 -85 -90 0 -90 0 0 85 0 85 90 0 90 0 0 -85z"/>
<path d="M1670 3487 c-50 -25 -50 -26 -50 -585 0 -552 1 -569 45 -586 9 -3
106 -6 216 -6 199 0 200 0 224 25 l25 24 0 541 0 542 -29 29 -29 29 -189 0
c-131 0 -196 -4 -213 -13z m290 -587 l0 -430 -85 0 -85 0 0 430 0 430 85 0 85
0 0 -430z"/>
<path d="M279 2784 c-24 -25 -24 -28 -24 -224 0 -196 0 -199 24 -224 l24 -26
204 0 c273 0 253 -20 253 250 0 270 20 250 -253 250 l-204 0 -24 -26z m321
-224 l0 -90 -90 0 -90 0 0 90 0 90 90 0 90 0 0 -90z"/>
<path d="M965 2785 c-25 -24 -25 -25 -25 -225 0 -270 -20 -250 253 -250 l204
0 24 26 c24 25 24 28 24 224 0 196 0 199 -24 224 l-24 26 -204 0 c-203 0 -204
0 -228 -25z m315 -225 l0 -90 -90 0 -90 0 0 90 0 90 90 0 90 0 0 -90z"/>
<path d="M3376 2624 c-107 -19 -242 -66 -340 -117 -157 -82 -336 -237 -336
-292 0 -38 41 -75 85 -75 29 0 46 10 104 63 128 118 277 199 449 244 83 22
119 25 247 26 130 0 163 -4 250 -27 115 -30 258 -96 349 -160 77 -56 208 -191
259 -269 200 -303 225 -701 64 -1024 -144 -290 -408 -491 -732 -555 -190 -38
-431 -10 -609 71 -227 103 -432 312 -525 535 -55 132 -73 217 -78 371 -6 168
14 282 72 421 49 117 52 142 25 177 -29 36 -86 38 -118 4 -28 -30 -86 -171
-111 -270 -164 -641 223 -1293 866 -1456 690 -175 1384 302 1473 1013 79 627
-356 1211 -984 1321 -109 19 -303 18 -410 -1z"/>
<path d="M3509 2271 c-25 -25 -29 -37 -29 -84 l0 -54 -74 -5 c-89 -6 -151 -38
-196 -100 -46 -63 -52 -102 -48 -302 3 -205 11 -230 87 -299 43 -38 82 -53
174 -62 l57 -6 0 -215 0 -214 -131 0 c-72 0 -138 -4 -148 -10 -10 -5 -24 -23
-31 -40 -15 -35 0 -84 31 -100 10 -6 76 -10 148 -10 l131 0 0 -50 c0 -81 28
-120 85 -120 57 0 85 39 85 120 l0 50 88 0 c102 0 148 17 204 76 59 62 68 101
68 303 0 164 -2 179 -24 226 -47 101 -124 144 -253 145 l-83 0 0 219 0 220
156 3 156 3 24 28 c26 30 31 72 11 98 -25 33 -55 39 -201 39 l-146 0 0 56 c0
48 -4 59 -29 85 -18 17 -40 29 -56 29 -16 0 -38 -12 -56 -29z m-29 -526 l0
-215 -49 0 c-34 0 -56 6 -75 21 l-26 20 0 175 c0 208 3 214 95 214 l55 0 0
-215z m343 -414 c21 -20 22 -30 22 -187 l0 -166 -28 -24 c-24 -20 -39 -24 -98
-24 l-69 0 0 216 0 217 76 -5 c60 -4 80 -10 97 -27z"/>
<path d="M1435 1443 c-64 -16 -86 -93 -40 -138 l24 -25 294 0 c278 0 296 1
319 20 53 41 36 121 -29 139 -37 11 -527 14 -568 4z"/>
<path d="M1415 1008 c-30 -16 -45 -39 -45 -69 0 -85 16 -89 344 -89 157 0 286
4 301 10 37 14 57 65 41 105 -7 16 -23 36 -37 42 -32 17 -574 18 -604 1z"/>
</g>
</svg>
