<?xml version="1.0" encoding="utf-8"?>
<svg xmlns="http://www.w3.org/2000/svg"
	xmlns:xlink="http://www.w3.org/1999/xlink"
	width="46px" height="51px" viewBox="0 0 46 51">
<path fillRule="evenodd" d="M 39.25 11.55C 43.6 15.91 45.99 21.71 45.99 27.88 45.99 34.06 43.6 39.86 39.25 44.22 34.91 48.59 29.13 50.99 22.99 50.99 16.85 50.99 11.07 48.59 6.73 44.22 2.38 39.86-0.01 34.06-0.01 27.88-0.01 21.71 2.38 15.91 6.73 11.55 10.88 7.37 16.35 4.99 22.2 4.8 22.2 4.8 22.2 1.59 22.2 1.59 22.2 1.59 18.23 1.59 18.23 1.59 18.23 1.59 18.23-0 18.23-0 18.23-0 22.2-0 22.2-0 22.2-0 22.99-0 22.99-0 22.99-0 27.75-0 27.75-0 27.75-0 27.75 1.59 27.75 1.59 27.75 1.59 23.78 1.59 23.78 1.59 23.78 1.59 23.78 4.8 23.78 4.8 29.63 4.99 35.1 7.37 39.25 11.55ZM 22.2 8.76C 22.2 8.76 22.2 6.39 22.2 6.39 16.77 6.59 11.7 8.8 7.85 12.67 3.99 16.55 1.79 21.64 1.59 27.09 1.59 27.09 3.96 27.09 3.96 27.09 3.96 27.09 3.96 28.68 3.96 28.68 3.96 28.68 1.59 28.68 1.59 28.68 1.79 34.13 3.99 39.22 7.85 43.1 11.7 46.97 16.77 49.18 22.2 49.38 22.2 49.38 22.2 47.01 22.2 47.01 22.2 47.01 23.78 47.01 23.78 47.01 23.78 47.01 23.78 49.38 23.78 49.38 29.2 49.18 34.27 46.97 38.13 43.1 41.99 39.22 44.19 34.13 44.38 28.68 44.38 28.68 42.02 28.68 42.02 28.68 42.02 28.68 42.02 27.09 42.02 27.09 42.02 27.09 44.38 27.09 44.38 27.09 44.19 21.64 41.99 16.55 38.13 12.67 34.27 8.8 29.2 6.59 23.78 6.39 23.78 6.39 23.78 8.76 23.78 8.76 23.78 8.76 22.2 8.76 22.2 8.76ZM 23.78 24.81C 25.15 25.17 26.16 26.4 26.16 27.88 26.16 29.64 24.74 31.07 22.99 31.07 21.24 31.07 19.82 29.64 19.82 27.88 19.82 26.4 20.83 25.17 22.2 24.81 22.2 24.81 22.2 10.73 22.2 10.73 22.2 10.73 23.78 10.73 23.78 10.73 23.78 10.73 23.78 24.81 23.78 24.81ZM 21.4 27.88C 21.4 28.76 22.11 29.48 22.99 29.48 23.86 29.48 24.58 28.76 24.58 27.88 24.58 27.01 23.86 26.29 22.99 26.29 22.11 26.29 21.4 27.01 21.4 27.88ZM 8.6 41.21C 8.6 41.21 10.85 38.96 10.85 38.96 10.85 38.96 11.97 40.09 11.97 40.09 11.97 40.09 9.72 42.34 9.72 42.34 9.72 42.34 8.6 41.21 8.6 41.21ZM 8.6 14.56C 8.6 14.56 9.72 13.43 9.72 13.43 9.72 13.43 11.97 15.68 11.97 15.68 11.97 15.68 10.84 16.81 10.84 16.81 10.84 16.81 8.6 14.56 8.6 14.56ZM 37.38 41.21C 37.38 41.21 36.26 42.34 36.26 42.34 36.26 42.34 34.01 40.09 34.01 40.09 34.01 40.09 35.13 38.96 35.13 38.96 35.13 38.96 37.38 41.21 37.38 41.21ZM 34.01 15.68C 34.01 15.68 36.26 13.43 36.26 13.43 36.26 13.43 37.38 14.56 37.38 14.56 37.38 14.56 35.14 16.81 35.14 16.81 35.14 16.81 34.01 15.68 34.01 15.68Z" fill="rgb(255,127,0)"/><path fillRule="evenodd" d="M 25 29C 25 29 25 27 25 27 25 27 40 27 40 27 40 27 40 29 40 29 40 29 25 29 25 29Z" fill="rgb(255,127,0)"/></svg>