<?xml version="1.0" encoding="utf-8"?>
<svg xmlns="http://www.w3.org/2000/svg"
	xmlns:xlink="http://www.w3.org/1999/xlink"
	width="46px" height="46px" viewBox="0 0 46 46">
<path fillRule="evenodd" d="M 45.22 45.82C 45.22 45.82 20.54 45.82 20.54 45.82 20.48 45.84 20.41 45.85 20.34 45.85 20.34 45.85 13.64 45.85 13.64 45.85 13.64 45.85 7.58 45.85 7.58 45.85 7.58 45.85 6.47 45.85 6.47 45.85 6.07 45.85 5.75 45.53 5.75 45.13 5.75 44.73 6.07 44.41 6.47 44.41 6.47 44.41 7.58 44.41 7.58 44.41 7.58 44.41 13.64 44.41 13.64 44.41 13.64 44.41 19.62 44.41 19.62 44.41 19.62 44.41 19.62 41.53 19.62 41.53 19.62 38.48 17.17 37.62 17.14 37.61 17.13 37.61 17.12 37.61 17.11 37.6 17.11 37.6 13.14 36.01 13.14 36.01 13.14 36.01 11.1 38.12 11.1 38.12 10.96 38.26 10.78 38.34 10.59 38.35 10.58 38.35 10.58 38.35 10.58 38.35 10.39 38.35 10.2 38.27 10.07 38.14 10.07 38.14 7.98 36.11 7.98 36.11 7.96 36.09 7.94 36.07 7.93 36.05 7.93 36.05 3.95 37.6 3.95 37.6 3.94 37.61 3.93 37.61 3.92 37.62 3.82 37.65 1.44 38.51 1.44 41.53 1.44 41.53 1.44 44.41 1.44 44.41 1.44 44.41 3.93 44.41 3.93 44.41 4.33 44.41 4.65 44.73 4.65 45.13 4.65 45.53 4.33 45.85 3.93 45.85 3.93 45.85 0.72 45.85 0.72 45.85 0.32 45.85-0.01 45.53-0.01 45.13-0.01 45.13-0.01 41.53-0.01 41.53-0.01 38.28 2.23 36.66 3.44 36.25 3.44 36.25 7.76 34.56 7.76 34.56 7.76 34.56 7.76 33.64 7.76 33.64 6.6 33.01 5.72 31.93 5.35 30.63 5.35 30.63 5.34 30.63 5.33 30.63 3.92 30.63 2.77 29.48 2.77 28.07 2.77 27.22 3.18 26.47 3.83 26 3.83 26 3.83 24.08 3.83 24.08 3.83 20.59 6.6 17.74 10.07 17.6 10.07 17.6 10.07 0.72 10.07 0.72 10.07 0.32 10.39-0 10.79-0 10.79-0 35.53-0 35.53-0 35.54-0 35.55-0 35.55-0 35.56-0 35.57 0 35.58 0 35.61 0 35.64 0.01 35.67 0.01 35.67 0.01 35.67 0.01 35.68 0.01 35.7 0.02 35.73 0.03 35.76 0.04 35.77 0.04 35.78 0.04 35.79 0.05 35.81 0.06 35.84 0.07 35.86 0.08 35.87 0.08 35.87 0.08 35.87 0.08 35.9 0.1 35.93 0.11 35.95 0.13 35.96 0.14 35.96 0.14 35.97 0.15 36 0.17 36.02 0.19 36.04 0.21 36.04 0.21 40.13 4.29 40.13 4.29 40.13 4.29 45.73 9.87 45.73 9.87 45.75 9.89 45.77 9.92 45.79 9.94 45.8 9.95 45.8 9.96 45.81 9.96 45.83 9.99 45.84 10.02 45.86 10.04 45.86 10.04 45.86 10.05 45.86 10.05 45.87 10.07 45.88 10.1 45.9 10.13 45.9 10.14 45.9 10.14 45.9 10.15 45.91 10.18 45.92 10.21 45.93 10.24 45.93 10.24 45.93 10.24 45.93 10.24 45.93 10.27 45.94 10.3 45.94 10.33 45.94 10.34 45.94 10.35 45.94 10.36 45.94 10.37 45.94 10.38 45.94 10.38 45.94 10.38 45.94 45.1 45.94 45.1 45.94 45.5 45.62 45.82 45.22 45.82ZM 9.22 35.29C 9.22 35.29 10.56 36.6 10.56 36.6 10.56 36.6 11.96 35.15 11.96 35.15 11.96 35.15 11.96 35.07 11.96 35.07 11.96 35.07 11.96 35.06 11.96 35.06 11.96 35.06 11.96 35.06 11.96 35.06 11.96 35.06 11.96 34.15 11.96 34.15 11.66 34.2 11.36 34.23 11.05 34.23 11.05 34.23 10.13 34.23 10.13 34.23 9.82 34.23 9.51 34.2 9.22 34.15 9.22 34.15 9.22 35.29 9.22 35.29ZM 6.62 29.29C 6.62 31.22 8.19 32.79 10.13 32.79 10.13 32.79 11.05 32.79 11.05 32.79 12.98 32.79 14.56 31.22 14.56 29.29 14.56 29.29 14.56 26.21 14.56 26.21 13.46 25.77 12.79 24.85 12.4 24.09 10.52 25.83 7.88 26.27 6.62 26.37 6.62 26.37 6.62 29.29 6.62 29.29ZM 5.17 26.97C 5.15 26.97 5.14 26.98 5.12 26.98 4.99 27.14 4.8 27.25 4.58 27.25 4.36 27.46 4.22 27.75 4.22 28.07 4.22 28.63 4.63 29.09 5.17 29.17 5.17 29.17 5.17 26.97 5.17 26.97ZM 10.33 19.04C 7.55 19.04 5.28 21.3 5.28 24.08 5.28 24.08 5.28 25.3 5.28 25.3 5.28 25.3 5.29 25.29 5.29 25.28 5.29 25.28 5.3 25.27 5.3 25.26 5.31 25.25 5.32 25.24 5.33 25.23 5.34 25.22 5.34 25.22 5.35 25.21 5.36 25.2 5.37 25.19 5.38 25.18 5.38 25.17 5.39 25.17 5.39 25.16 5.41 25.15 5.42 25.14 5.43 25.13 5.44 25.12 5.44 25.12 5.45 25.12 5.46 25.11 5.47 25.1 5.49 25.09 5.49 25.08 5.5 25.08 5.5 25.08 5.52 25.07 5.53 25.06 5.55 25.05 5.55 25.05 5.56 25.04 5.57 25.04 5.58 25.03 5.59 25.03 5.61 25.02 5.62 25.02 5.63 25.01 5.64 25.01 5.65 25.01 5.66 25 5.68 25 5.69 24.99 5.7 24.99 5.71 24.99 5.72 24.98 5.73 24.98 5.74 24.98 5.76 24.98 5.78 24.97 5.79 24.97 5.8 24.97 5.81 24.97 5.82 24.97 5.84 24.97 5.87 24.96 5.89 24.96 5.89 24.96 5.89 24.96 5.89 24.96 5.89 24.96 5.89 24.96 5.89 24.96 5.95 24.96 10.16 24.94 12.07 22.3 12.23 22.07 12.52 21.96 12.8 22.02 13.08 22.08 13.3 22.29 13.36 22.57 13.37 22.58 13.86 24.62 15.44 24.98 15.45 24.98 15.46 24.99 15.46 24.99 15.48 24.99 15.49 25 15.51 25 15.52 25 15.53 25.01 15.53 25.01 15.55 25.02 15.56 25.02 15.57 25.03 15.58 25.03 15.59 25.04 15.6 25.04 15.62 25.05 15.63 25.05 15.64 25.06 15.65 25.06 15.66 25.07 15.67 25.08 15.68 25.08 15.69 25.09 15.7 25.09 15.71 25.1 15.72 25.11 15.73 25.12 15.74 25.12 15.74 25.13 15.75 25.14 15.76 25.14 15.77 25.15 15.78 25.16 15.79 25.17 15.79 25.18 15.8 25.18 15.81 25.19 15.82 25.2 15.83 25.21 15.83 25.22 15.84 25.23 15.85 25.24 15.86 25.25 15.86 25.25 15.87 25.26 15.87 25.27 15.87 25.27 15.87 25.27 15.87 25.27 15.87 24.08 15.87 24.08 15.87 21.3 13.6 19.04 10.82 19.04 10.82 19.04 10.33 19.04 10.33 19.04ZM 41.6 7.8C 41.6 7.8 41.6 7.8 41.6 7.8 41.6 7.8 39.11 5.31 39.11 5.31 39.11 5.31 38.53 4.73 38.53 4.73 38.53 4.73 38.53 4.73 38.53 4.73 38.53 4.73 36.26 2.47 36.26 2.47 36.26 2.47 36.26 9.66 36.26 9.66 36.26 9.66 43.47 9.66 43.47 9.66 43.47 9.66 41.6 7.8 41.6 7.8ZM 44.49 11.11C 44.49 11.11 35.53 11.11 35.53 11.11 35.13 11.11 34.81 10.78 34.81 10.38 34.81 10.38 34.81 1.45 34.81 1.45 34.81 1.45 11.52 1.45 11.52 1.45 11.52 1.45 11.52 17.63 11.52 17.63 14.78 17.98 17.32 20.74 17.32 24.08 17.32 24.08 17.32 26.01 17.32 26.01 17.96 26.47 18.37 27.23 18.37 28.07 18.37 29.48 17.23 30.63 15.82 30.63 15.45 31.93 14.57 33.01 13.41 33.64 13.41 33.64 13.41 34.56 13.41 34.56 13.41 34.56 17.63 36.25 17.63 36.25 18.83 36.66 21.07 38.28 21.07 41.53 21.07 41.53 21.07 44.38 21.07 44.38 21.07 44.38 44.49 44.38 44.49 44.38 44.49 44.38 44.49 44.38 44.49 44.38 44.49 44.38 44.49 11.11 44.49 11.11ZM 16.01 26.98C 16.01 26.98 16.01 29.17 16.01 29.17 16.53 29.07 16.92 28.62 16.92 28.07 16.92 27.74 16.77 27.44 16.54 27.23 16.34 27.22 16.17 27.13 16.05 26.99 16.04 26.98 16.02 26.98 16.01 26.98 16.01 26.98 16.01 26.98 16.01 26.98ZM 36.82 33.7C 36.82 33.7 19.53 33.7 19.53 33.7 19.13 33.7 18.8 33.38 18.8 32.98 18.8 32.58 19.13 32.25 19.53 32.25 19.53 32.25 36.82 32.25 36.82 32.25 37.22 32.25 37.54 32.58 37.54 32.98 37.54 33.38 37.22 33.7 36.82 33.7ZM 36.82 28.74C 36.82 28.74 19.53 28.74 19.53 28.74 19.13 28.74 18.8 28.42 18.8 28.02 18.8 27.62 19.13 27.29 19.53 27.29 19.53 27.29 36.82 27.29 36.82 27.29 37.22 27.29 37.54 27.62 37.54 28.02 37.54 28.42 37.22 28.74 36.82 28.74ZM 36.82 23.78C 36.82 23.78 19.53 23.78 19.53 23.78 19.13 23.78 18.8 23.46 18.8 23.06 18.8 22.66 19.13 22.33 19.53 22.33 19.53 22.33 36.82 22.33 36.82 22.33 37.22 22.33 37.54 22.66 37.54 23.06 37.54 23.46 37.22 23.78 36.82 23.78ZM 36.82 18.82C 36.82 18.82 19.53 18.82 19.53 18.82 19.13 18.82 18.8 18.5 18.8 18.1 18.8 17.7 19.13 17.38 19.53 17.38 19.53 17.38 36.82 17.38 36.82 17.38 37.22 17.38 37.54 17.7 37.54 18.1 37.54 18.5 37.22 18.82 36.82 18.82ZM 30.97 13.86C 30.97 13.86 19.53 13.86 19.53 13.86 19.13 13.86 18.8 13.54 18.8 13.14 18.8 12.74 19.13 12.42 19.53 12.42 19.53 12.42 30.97 12.42 30.97 12.42 31.37 12.42 31.7 12.74 31.7 13.14 31.7 13.54 31.37 13.86 30.97 13.86Z" fill="rgb(41,41,41)"/></svg>