<?xml version="1.0" encoding="utf-8"?>
<svg xmlns="http://www.w3.org/2000/svg"
	xmlns:xlink="http://www.w3.org/1999/xlink"
	width="55px" height="55px" viewBox="0 0 55 55">
<path fillRule="evenodd" d="M 54.37 54.95C 54.28 54.98 54.18 55 54.08 55 53.7 55 53.34 54.75 53.21 54.37 52.43 52.03 50.23 49.69 50.21 49.67 49.86 49.3 49.88 48.72 50.24 48.37 50.61 48.03 51.19 48.04 51.54 48.41 51.64 48.51 54.04 51.06 54.95 53.79 55.11 54.27 54.85 54.79 54.37 54.95ZM 32.25 54.99C 32.22 55 32.19 55 32.16 55 31.86 55 31.58 54.85 31.41 54.6 30.04 52.64 28.21 51.7 27.5 51.4 26.8 51.71 24.95 52.65 23.59 54.6 23.4 54.88 23.08 55.03 22.75 54.99 22.36 54.95 13.28 53.97 5.81 47.44 5.58 47.24 5.47 46.93 5.51 46.63 5.55 46.33 5.73 46.06 6.01 45.93 7.87 45 11.61 44 16.5 44 17.01 44 17.42 44.41 17.42 44.91 17.42 45.42 17.01 45.83 16.5 45.83 12.95 45.83 10.05 46.39 8.19 47.02 13.98 51.53 20.57 52.81 22.42 53.1 24.45 50.49 27.09 49.58 27.21 49.54 27.4 49.48 27.6 49.48 27.79 49.54 27.91 49.58 30.55 50.49 32.58 53.1 34.43 52.81 41.02 51.53 46.81 47.02 44.95 46.39 42.05 45.83 38.5 45.83 37.99 45.83 37.58 45.42 37.58 44.91 37.58 44.41 37.99 44 38.5 44 43.39 44 47.13 45 48.99 45.93 49.27 46.06 49.45 46.33 49.49 46.63 49.53 46.93 49.42 47.24 49.19 47.44 41.72 53.97 32.64 54.95 32.25 54.99ZM 42.17 7.16C 42.17 7.16 42.17 19.25 42.17 19.25 42.17 19.75 41.76 20.16 41.25 20.16 40.74 20.16 40.33 19.75 40.33 19.25 40.33 19.25 40.33 8.13 40.33 8.13 40.33 8.13 33.51 12.68 33.51 12.68 33.11 12.95 32.56 12.85 32.27 12.47 32.27 12.47 27.5 6.11 27.5 6.11 27.5 6.11 22.73 12.47 22.73 12.47 22.44 12.85 21.89 12.95 21.49 12.68 21.49 12.68 14.67 8.13 14.67 8.13 14.67 8.13 14.67 18.33 14.67 18.33 14.67 18.33 37.58 18.33 37.58 18.33 38.09 18.33 38.5 18.74 38.5 19.25 38.5 19.75 38.09 20.16 37.58 20.16 37.58 20.16 13.75 20.16 13.75 20.16 13.24 20.16 12.83 19.75 12.83 19.25 12.83 19.25 12.83 7.16 12.83 7.16 11.77 6.78 11 5.78 11 4.58 11 3.07 12.23 1.83 13.75 1.83 15.27 1.83 16.5 3.07 16.5 4.58 16.5 5.37 16.17 6.07 15.64 6.57 15.64 6.57 21.79 10.67 21.79 10.67 21.79 10.67 26 5.05 26 5.05 25.25 4.56 24.75 3.71 24.75 2.75 24.75 1.23 25.98-0 27.5-0 29.02-0 30.25 1.23 30.25 2.75 30.25 3.71 29.75 4.56 29 5.05 29 5.05 33.21 10.67 33.21 10.67 33.21 10.67 39.36 6.57 39.36 6.57 38.83 6.07 38.5 5.37 38.5 4.58 38.5 3.07 39.73 1.83 41.25 1.83 42.77 1.83 44 3.07 44 4.58 44 5.78 43.23 6.78 42.17 7.16ZM 13.75 3.67C 13.24 3.67 12.83 4.08 12.83 4.58 12.83 5.09 13.24 5.5 13.75 5.5 14.25 5.5 14.67 5.09 14.67 4.58 14.67 4.08 14.25 3.67 13.75 3.67ZM 27.5 1.83C 26.99 1.83 26.58 2.24 26.58 2.75 26.58 3.25 26.99 3.67 27.5 3.67 28 3.67 28.42 3.25 28.42 2.75 28.42 2.24 28 1.83 27.5 1.83ZM 41.25 3.67C 40.75 3.67 40.33 4.08 40.33 4.58 40.33 5.09 40.75 5.5 41.25 5.5 41.76 5.5 42.17 5.09 42.17 4.58 42.17 4.08 41.76 3.67 41.25 3.67ZM 22.92 25.67C 22.92 26.17 22.51 26.58 22 26.58 21.49 26.58 21.08 26.17 21.08 25.67 21.08 25.67 20.17 25.67 20.17 25.67 19.66 25.67 19.25 25.25 19.25 24.75 19.25 24.24 19.66 23.83 20.17 23.83 20.17 23.83 23.83 23.83 23.83 23.83 24.34 23.83 24.75 24.24 24.75 24.75 24.75 25.25 24.34 25.67 23.83 25.67 23.83 25.67 22.92 25.67 22.92 25.67ZM 33.92 25.67C 33.92 26.17 33.51 26.58 33 26.58 32.49 26.58 32.08 26.17 32.08 25.67 32.08 25.67 31.17 25.67 31.17 25.67 30.66 25.67 30.25 25.25 30.25 24.75 30.25 24.24 30.66 23.83 31.17 23.83 31.17 23.83 34.83 23.83 34.83 23.83 35.34 23.83 35.75 24.24 35.75 24.75 35.75 25.25 35.34 25.67 34.83 25.67 34.83 25.67 33.92 25.67 33.92 25.67ZM 41.25 25.67C 40.74 25.67 40.33 25.25 40.33 24.75 40.33 24.75 40.33 22.92 40.33 22.92 40.33 22.41 40.74 22 41.25 22 41.76 22 42.17 22.41 42.17 22.92 42.17 22.92 42.17 23.96 42.17 23.96 43.28 24.31 44 25.29 44 26.58 44 26.58 44 28.42 44 28.42 44 29.73 43.08 30.83 41.85 31.1 41.85 31.1 40.28 34.18 40.28 34.18 39.14 45.32 32.71 47.66 27.5 47.66 20.48 47.66 15.73 42.67 14.76 34.3 14.73 34.24 14.72 34.17 14.7 34.1 14.7 34.1 13.16 31.1 13.16 31.1 11.92 30.83 11 29.73 11 28.42 11 28.42 11 26.58 11 26.58 11 25.34 11.74 24.34 12.83 23.98 12.83 23.98 12.83 22.92 12.83 22.92 12.83 22.41 13.24 22 13.75 22 14.26 22 14.67 22.41 14.67 22.92 14.67 22.92 14.67 24.75 14.67 24.75 14.67 25.25 14.26 25.67 13.75 25.67 13.18 25.67 12.83 26.02 12.83 26.58 12.83 26.58 12.83 28.41 12.83 28.41 12.83 28.92 13.24 29.33 13.75 29.33 14.09 29.33 14.41 29.52 14.56 29.83 14.56 29.83 16.42 33.44 16.42 33.44 17.62 34.46 20.07 35.22 21.58 35.58 22.34 33.37 24.06 31.16 27.5 31.16 30.94 31.16 32.66 33.37 33.42 35.58 34.95 35.21 37.45 34.44 38.63 33.39 38.63 33.39 40.43 29.83 40.43 29.83 40.59 29.52 40.9 29.33 41.25 29.33 41.76 29.33 42.17 28.92 42.17 28.42 42.17 28.42 42.17 26.58 42.17 26.58 42.17 25.97 41.86 25.67 41.25 25.67ZM 33.84 37.37C 33.89 37.77 33.92 38.16 33.92 38.5 33.92 39 33.51 39.42 33 39.42 32.49 39.42 32.08 39 32.08 38.5 32.08 38.28 32.01 33 27.5 33 22.99 33 22.92 38.28 22.92 38.5 22.91 39.01 22.5 39.41 22 39.41 22 39.41 22 39.41 22 39.41 21.49 39.41 21.08 39 21.08 38.5 21.08 38.16 21.11 37.77 21.16 37.37 20.11 37.12 18.38 36.64 16.87 35.88 18.14 42.15 22.01 45.83 27.5 45.83 33.43 45.83 37.01 42.47 38.19 35.85 36.68 36.62 34.9 37.12 33.84 37.37ZM 28.42 36.66C 28.42 36.66 26.58 36.66 26.58 36.66 26.08 36.66 25.67 36.25 25.67 35.75 25.67 35.24 26.08 34.83 26.58 34.83 26.58 34.83 28.42 34.83 28.42 34.83 28.92 34.83 29.33 35.24 29.33 35.75 29.33 36.25 28.92 36.66 28.42 36.66ZM 1.79 54.37C 1.66 54.75 1.3 55 0.92 55 0.82 55 0.72 54.98 0.63 54.95 0.15 54.79-0.11 54.27 0.05 53.79 0.96 51.06 3.36 48.51 3.46 48.41 3.81 48.04 4.39 48.03 4.76 48.37 5.12 48.72 5.14 49.3 4.79 49.67 4.77 49.69 2.57 52.03 1.79 54.37ZM 27.52 53.16C 27.52 53.16 27.53 53.16 27.53 53.16 28.03 53.16 28.44 53.57 28.44 54.08 28.44 54.59 28.03 55 27.53 55 27.02 55 26.61 54.59 26.61 54.08 26.61 53.57 27.01 53.16 27.52 53.16Z" fill="rgb(255,127,0)"/></svg>