<?xml version="1.0" standalone="no"?>
<!DOCTYPE svg PUBLIC "-//W3C//DTD SVG 20010904//EN"
 "http://www.w3.org/TR/2001/REC-SVG-20010904/DTD/svg10.dtd">
<svg version="1.0" xmlns="http://www.w3.org/2000/svg"
 width="524.000000pt" height="612.000000pt" viewBox="0 0 524.000000 612.000000"
 preserveAspectRatio="xMidYMid meet">

<g transform="translate(0.000000,612.000000) scale(0.100000,-0.100000)"
fill="#000000" stroke="none">
<path d="M4029 6103 c-10 -11 -15 -52 -17 -125 l-4 -108 -1371 0 -1372 0 -49
50 c-28 28 -78 65 -115 83 -61 30 -73 32 -166 32 -93 0 -105 -2 -167 -33 -85
-41 -167 -128 -199 -209 -31 -79 -32 -206 -2 -280 29 -74 86 -147 142 -183
l48 -32 528 -1066 527 -1066 -16 -49 c-22 -68 -21 -184 3 -252 l20 -55 -489
-986 c-269 -543 -491 -989 -494 -991 -2 -3 -44 -7 -93 -9 -307 -13 -575 -201
-690 -484 -50 -125 -69 -292 -37 -324 14 -14 96 -16 753 -16 841 0 771 -8 771
88 0 172 -87 369 -226 510 l-72 73 477 963 c290 584 485 965 495 969 10 4 24
7 31 7 8 0 39 9 70 21 79 29 173 119 211 201 26 56 29 74 29 163 0 91 -3 106
-31 165 -54 115 -159 196 -284 221 l-57 11 -486 985 -487 984 26 35 26 34
1374 0 1373 0 3 -356 c3 -417 -7 -384 125 -384 l83 0 0 -254 c0 -298 -4 -286
107 -286 l63 0 0 -215 0 -214 47 -58 c25 -32 66 -81 90 -109 l43 -51 0 -933 0
-934 -89 87 c-49 48 -93 87 -98 87 -20 0 -63 -42 -63 -62 0 -12 33 -55 82
-104 l82 -84 -110 0 c-125 0 -154 -11 -154 -60 0 -49 29 -60 154 -60 l109 0
-82 -85 c-85 -89 -95 -111 -61 -145 34 -34 56 -24 145 61 l85 82 0 -112 c0
-98 2 -113 20 -131 26 -26 46 -25 75 5 23 23 25 31 25 131 l0 108 84 -82 c96
-94 124 -103 155 -45 6 12 11 25 11 29 0 3 -39 46 -87 95 l-87 89 117 0 c104
0 119 2 137 20 24 24 25 49 6 76 -12 16 -31 20 -131 24 l-116 5 66 65 c100 98
113 139 55 170 -28 15 -52 1 -137 -83 l-73 -71 0 929 0 930 71 85 c117 139
109 115 109 351 l0 207 71 4 c55 3 74 8 85 23 11 15 14 71 14 267 l0 248 83 0
c69 0 87 3 100 18 16 17 17 80 17 700 0 605 -2 682 -16 696 -14 14 -82 16
-598 16 -530 0 -585 -2 -597 -17z m1101 -353 l0 -260 -500 0 -500 0 0 260 0
260 500 0 500 0 0 -260z m-4085 156 c53 -23 120 -91 145 -148 18 -41 21 -65
18 -122 -4 -81 -26 -133 -75 -182 -176 -176 -473 -53 -473 195 0 100 39 169
133 241 52 39 178 47 252 16z m2965 -256 l0 -100 -1342 0 -1343 0 0 100 0 100
1343 0 1342 0 0 -100z m1120 -560 l0 -290 -500 0 -500 0 0 160 0 160 319 0
c347 0 351 1 351 55 0 54 -4 55 -351 55 l-319 0 0 75 0 75 500 0 500 0 0 -290z
m-3540 -756 c484 -976 483 -973 434 -974 -7 0 -39 -19 -73 -41 -34 -23 -64
-39 -66 -37 -8 7 -975 1963 -975 1971 0 4 24 7 53 8 28 0 68 6 87 13 19 8 42
14 51 15 11 1 151 -273 489 -955z m3330 146 l0 -210 -295 0 -295 0 0 210 0
210 295 0 295 0 0 -210z m-170 -527 l0 -198 -61 -73 -61 -72 -64 77 -64 77 0
193 0 193 125 0 125 0 0 -197z m-2465 -707 c95 -44 165 -151 165 -251 0 -98
-72 -208 -165 -251 -135 -63 -306 -1 -367 134 -67 149 6 327 157 380 56 19
155 14 210 -12z m-327 -580 c28 -19 65 -37 82 -41 16 -4 30 -10 30 -15 0 -8
-917 -1870 -925 -1878 -2 -2 -23 7 -47 19 -23 12 -66 29 -94 38 l-51 16 471
952 c259 523 473 950 477 948 3 -3 29 -20 57 -39z m-980 -1989 c104 -36 175
-81 257 -162 l70 -70 -352 -5 c-250 -4 -355 -8 -364 -17 -15 -15 -15 -59 1
-78 11 -13 67 -15 395 -15 l383 0 16 -42 c22 -62 36 -119 36 -150 l0 -28 -651
0 -652 0 7 56 c12 104 79 242 163 334 79 89 217 168 338 196 93 21 262 12 353
-19z"/>
<path d="M4382 5834 c-27 -19 -29 -64 -4 -87 27 -25 466 -25 500 -1 28 19 29
57 2 84 -19 19 -33 20 -248 20 -190 0 -231 -3 -250 -16z"/>
</g>
</svg>
