<?xml version="1.0" standalone="no"?>
<!DOCTYPE svg PUBLIC "-//W3C//DTD SVG 20010904//EN"
 "http://www.w3.org/TR/2001/REC-SVG-20010904/DTD/svg10.dtd">
<svg version="1.0" xmlns="http://www.w3.org/2000/svg"
 width="318.000000pt" height="512.000000pt" viewBox="0 0 318.000000 512.000000"
 preserveAspectRatio="xMidYMid meet">

<g transform="translate(0.000000,512.000000) scale(0.100000,-0.100000)"
fill="#000000" stroke="none">
<path d="M435 5106 c-41 -18 -92 -77 -106 -124 -7 -24 -10 -93 -7 -182 3 -131
5 -149 26 -183 13 -20 44 -49 70 -64 42 -25 55 -27 189 -31 l143 -5 0 -188 0
-189 -34 -14 c-47 -20 -123 -91 -149 -141 -22 -39 -22 -49 -22 -455 0 -406 0
-416 22 -455 26 -50 102 -121 149 -141 l34 -14 0 -133 c0 -72 5 -149 11 -170
12 -44 71 -115 103 -123 17 -4 74 -110 263 -489 135 -270 257 -500 275 -521
97 -110 279 -110 376 0 18 21 140 251 275 522 133 266 247 484 254 484 25 0
101 85 112 125 6 22 11 100 11 172 l0 133 34 14 c47 20 123 91 149 141 22 39
22 49 22 455 0 406 0 416 -22 455 -26 50 -102 121 -149 141 l-34 14 0 189 0
188 143 5 c134 4 147 6 189 31 26 15 57 44 70 64 21 34 23 52 26 183 4 163 -3
203 -51 257 -53 60 -68 63 -350 63 -250 0 -254 0 -274 -22 -11 -13 -23 -31
-26 -40 -9 -24 11 -76 33 -88 11 -6 117 -10 247 -10 125 0 234 -4 241 -8 9 -7
12 -40 10 -133 l-3 -124 -781 -5 c-751 -5 -783 -6 -803 -24 -31 -28 -28 -86 5
-117 l26 -24 564 -3 564 -3 0 -184 0 -185 -405 0 -406 0 -24 -25 c-30 -29 -32
-74 -6 -106 l19 -24 475 -5 c461 -5 476 -6 504 -26 62 -45 63 -54 63 -434 0
-380 -1 -389 -63 -434 -28 -20 -43 -21 -504 -26 l-475 -5 -19 -24 c-26 -32
-24 -77 6 -106 l24 -25 406 0 406 0 -3 -132 -3 -133 -665 0 -665 0 -3 133 -3
132 136 0 c131 0 137 1 160 25 31 30 32 73 5 108 l-20 26 -204 3 c-311 5 -296
-19 -296 458 0 477 -15 453 296 458 l204 3 20 26 c27 35 26 78 -5 108 -23 24
-29 25 -160 25 l-135 0 0 235 c0 245 -4 273 -44 294 -12 7 -93 12 -201 14
l-180 2 -3 124 c-2 93 1 126 10 133 7 4 333 8 725 8 391 0 719 3 728 6 23 9
47 61 39 87 -3 12 -16 32 -27 45 l-20 22 -741 0 c-590 -1 -747 -3 -771 -14z
m1665 -2631 c0 -3 -99 -203 -220 -445 -132 -265 -227 -443 -239 -450 -25 -13
-77 -13 -102 0 -12 7 -107 185 -239 450 -121 242 -220 442 -220 445 0 3 230 5
510 5 281 0 510 -2 510 -5z"/>
<path d="M1535 1215 l-25 -24 0 -249 0 -249 25 -23 c32 -30 78 -30 110 0 l25
23 0 249 0 249 -25 24 c-15 16 -36 25 -55 25 -19 0 -40 -9 -55 -25z"/>
<path d="M1555 478 c-42 -24 -44 -36 -45 -236 0 -192 0 -193 25 -217 15 -16
36 -25 55 -25 19 0 40 9 55 25 25 24 25 25 25 217 -1 202 -3 213 -47 236 -27
15 -42 15 -68 0z"/>
<path d="M21 134 c-28 -36 -27 -79 4 -109 l24 -25 626 0 626 0 24 25 c16 15
25 36 25 55 0 19 -9 40 -25 55 l-24 25 -630 0 -630 0 -20 -26z"/>
<path d="M1855 135 c-16 -15 -25 -36 -25 -55 0 -19 9 -40 25 -55 l24 -25 626
0 626 0 24 25 c31 30 32 73 4 109 l-20 26 -630 0 -630 0 -24 -25z"/>
</g>
</svg>
