<?xml version="1.0" encoding="utf-8"?>
<svg xmlns="http://www.w3.org/2000/svg"
	xmlns:xlink="http://www.w3.org/1999/xlink"
	width="49px" height="50px" viewBox="0 0 49 50">
<path fillRule="evenodd" d="M 47.57 25.83C 48.25 26.45 49 27.54 49 29.31 49 31.37 47.63 32.67 46.62 33.35 47.14 33.95 47.65 34.95 47.65 36.61 47.65 38.97 45.63 40.17 44.35 40.69 44.86 41.61 44.96 42.69 44.7 44.18 44.26 46.73 40.1 47.82 30.77 47.82 24.69 47.82 21.56 46.95 19.49 46.37 18.52 46.1 17.82 45.9 17.18 45.9 17.18 45.9 9.55 45.9 9.55 45.9 9.55 45.9 9.55 49.27 9.55 49.27 9.55 49.68 9.22 50.01 8.81 50.01 8.81 50.01 0.74 50.01 0.74 50.01 0.33 50.01 0 49.68 0 49.27 0 49.27 0 23.91 0 23.91 0 23.5 0.33 23.17 0.74 23.17 0.74 23.17 8.81 23.17 8.81 23.17 9.21 23.17 9.55 23.5 9.55 23.91 9.55 23.91 9.55 26.98 9.55 26.98 12.14 26.73 14.4 25.16 16.28 22.28 19.17 17.84 20.87 15.34 23.92 11.42 26.81 7.71 28.41 3.63 28.7 2.34 28.7 2.34 28.81 1.82 28.81 1.82 28.98 0.92 29.17-0.01 30.67-0.01 33.63-0.01 35.22 3.39 35.22 6.59 35.22 8.57 34.48 11.22 32.94 14.72 32.35 16.08 32.44 17.03 32.7 17.42 32.83 17.62 33.01 17.72 33.28 17.72 33.28 17.72 45.03 17.72 45.03 17.72 46.46 17.88 49 18.99 49 22.05 49 24.08 48.26 25.21 47.57 25.83ZM 8.07 24.64C 8.07 24.64 1.48 24.64 1.48 24.64 1.48 24.64 1.48 48.53 1.48 48.53 1.48 48.53 8.07 48.53 8.07 48.53 8.07 48.53 8.07 45.16 8.07 45.16 8.07 45.16 8.07 27.77 8.07 27.77 8.07 27.77 8.07 24.64 8.07 24.64ZM 46 25.09C 46.05 25.07 47.52 24.61 47.52 22.05 47.52 19.52 45.05 19.2 44.94 19.19 44.94 19.19 33.28 19.19 33.28 19.19 32.51 19.19 31.87 18.85 31.46 18.23 30.82 17.26 30.87 15.76 31.59 14.12 33.04 10.82 33.74 8.36 33.74 6.59 33.74 4.46 32.79 1.47 30.67 1.47 30.45 1.47 30.38 1.49 30.38 1.49 30.37 1.54 30.31 1.85 30.26 2.11 30.26 2.11 30.15 2.66 30.15 2.66 29.84 4.05 28.14 8.42 25.09 12.32 22.07 16.21 20.39 18.68 17.52 23.08 15.34 26.43 12.67 28.24 9.55 28.49 9.55 28.49 9.55 44.42 9.55 44.42 9.55 44.42 17.18 44.42 17.18 44.42 18.02 44.42 18.85 44.66 19.89 44.95 21.88 45.5 24.89 46.35 30.77 46.35 41.26 46.35 43.09 44.84 43.24 43.93 43.54 42.21 43.22 41.46 42.61 40.82 42.43 40.63 42.37 40.35 42.44 40.1 42.52 39.85 42.72 39.65 42.98 39.59 43.01 39.59 46.17 38.82 46.17 36.61 46.17 34.41 45.07 33.96 45.02 33.95 44.74 33.84 44.54 33.56 44.54 33.26 44.54 32.96 44.71 32.68 44.99 32.57 45.02 32.56 47.52 31.51 47.52 29.31 47.52 27.11 45.94 26.5 45.93 26.49 45.63 26.38 45.43 26.08 45.45 25.76 45.47 25.44 45.69 25.17 46 25.09Z" fill="rgb(255,127,0)"/></svg>