<?xml version="1.0" encoding="utf-8"?>
<svg xmlns="http://www.w3.org/2000/svg"
	xmlns:xlink="http://www.w3.org/1999/xlink"
	width="23px" height="24px" viewBox="0 0 23 24">
<path fillRule="evenodd" d="M 22.64 21.86C 22.64 21.86 16.97 15.92 16.97 15.92 18.43 14.17 19.23 11.98 19.23 9.69 19.23 4.35 14.92 0 9.61 0 4.31 0-0 4.35-0 9.69-0 15.03 4.31 19.38 9.61 19.38 11.6 19.38 13.5 18.77 15.12 17.63 15.12 17.63 20.83 23.61 20.83 23.61 21.07 23.86 21.39 24 21.74 24 22.06 24 22.37 23.87 22.61 23.65 23.1 23.16 23.12 22.36 22.64 21.86ZM 9.61 2.53C 13.53 2.53 16.72 5.74 16.72 9.69 16.72 13.64 13.53 16.85 9.61 16.85 5.69 16.85 2.51 13.64 2.51 9.69 2.51 5.74 5.69 2.53 9.61 2.53Z" fill="rgb(255,255,255)"/></svg>