<?xml version="1.0" standalone="no"?>
<!DOCTYPE svg PUBLIC "-//W3C//DTD SVG 20010904//EN"
 "http://www.w3.org/TR/2001/REC-SVG-20010904/DTD/svg10.dtd">
<svg version="1.0" xmlns="http://www.w3.org/2000/svg"
 width="512.000000pt" height="512.000000pt" viewBox="0 0 512.000000 512.000000"
 preserveAspectRatio="xMidYMid meet">

<g transform="translate(0.000000,512.000000) scale(0.100000,-0.100000)"
fill="#ff8000" stroke="none">
<path d="M2335 5114 c-16 -2 -70 -9 -120 -15 -114 -14 -308 -62 -405 -101
-453 -180 -733 -526 -835 -1032 -13 -67 -27 -163 -31 -213 -6 -86 -9 -93 -28
-93 -39 0 -121 -47 -162 -92 -73 -79 -75 -94 -72 -519 3 -361 4 -375 25 -414
26 -51 102 -121 151 -142 56 -24 235 -30 303 -10 29 9 57 13 60 9 3 -4 16 -47
28 -97 43 -174 132 -379 232 -535 l48 -75 -39 -155 c-22 -85 -40 -166 -40
-180 0 -14 11 -41 24 -61 l24 -35 -141 -33 c-172 -41 -376 -109 -567 -191
-172 -74 -544 -258 -605 -300 -78 -54 -137 -140 -169 -249 -13 -44 -16 -103
-16 -293 l0 -239 25 -24 24 -25 2511 0 2511 0 24 25 25 24 0 234 c0 271 -9
320 -83 429 -62 92 -131 141 -358 255 -369 183 -644 290 -916 354 l-142 34 25
32 c13 17 24 44 24 60 0 15 -18 98 -40 183 l-39 155 43 65 c40 60 49 67 112
92 229 91 374 247 419 453 l17 75 44 11 c89 23 167 95 200 186 10 29 13 122
14 400 0 338 -1 366 -20 415 -32 85 -143 177 -216 178 -19 0 -22 7 -28 93 -9
127 -48 313 -91 437 -177 507 -553 805 -1145 906 -90 15 -529 29 -605 18z
m385 -174 c562 -42 948 -266 1148 -665 67 -135 120 -348 136 -545 l5 -65 -49
-16 -49 -15 -12 55 c-93 457 -441 854 -885 1014 -150 54 -264 72 -454 72 -190
0 -304 -18 -454 -72 -444 -160 -792 -557 -885 -1014 l-12 -55 -49 15 -49 16 5
65 c46 580 326 961 830 1125 232 76 497 105 774 85z m58 -356 c232 -41 444
-154 623 -333 155 -154 257 -331 317 -551 l27 -95 0 -500 c0 -482 -1 -504 -22
-601 -36 -163 -137 -427 -171 -448 -17 -10 -211 -46 -337 -62 -71 -8 -237 -19
-369 -23 l-238 -6 -24 -28 c-32 -38 -32 -90 1 -122 23 -24 30 -25 142 -25 159
0 421 18 564 39 l117 16 -21 -30 c-44 -64 -206 -214 -290 -270 -99 -65 -227
-123 -332 -151 -53 -14 -105 -18 -215 -18 -141 0 -148 1 -255 38 -168 57 -291
132 -432 263 -72 66 -206 222 -248 288 -93 146 -176 351 -218 539 -21 97 -22
119 -22 601 l0 500 27 95 c60 220 162 397 317 551 288 287 659 403 1059 333z
m-1665 -1093 c14 -6 35 -20 46 -32 21 -22 21 -31 21 -382 l0 -359 -29 -29
c-29 -28 -32 -29 -129 -29 -93 0 -103 2 -131 26 l-31 26 0 361 c0 396 0 392
60 416 32 13 161 14 193 2z m3083 -6 c61 -25 64 -44 64 -398 0 -173 -3 -328
-6 -346 -4 -17 -18 -42 -32 -56 -23 -24 -31 -25 -129 -25 -102 0 -105 1 -134
29 l-29 29 0 355 c0 347 0 355 21 381 12 15 31 32 43 36 35 14 164 11 202 -5z
m-215 -1005 c20 0 21 -4 15 -42 -11 -76 -61 -162 -128 -222 -34 -31 -63 -54
-65 -52 -3 2 7 36 21 75 14 38 32 98 41 133 9 35 21 80 26 101 l10 37 29 -15
c16 -8 39 -15 51 -15z m-2225 -949 c98 -93 218 -175 335 -230 85 -40 243 -91
283 -91 56 -1 54 -6 -60 -264 -60 -135 -113 -245 -118 -243 -5 2 -92 118 -193
258 -101 140 -226 311 -278 380 l-93 126 15 72 c9 39 18 71 21 71 2 0 42 -36
88 -79z m1717 8 l15 -72 -93 -126 c-52 -69 -177 -240 -278 -380 -101 -140
-188 -256 -193 -258 -5 -2 -58 108 -118 243 -114 258 -116 263 -60 264 40 0
198 51 283 91 118 55 238 137 334 229 45 44 85 79 88 80 3 0 13 -32 22 -71z
m167 -365 c224 -43 535 -156 872 -314 305 -144 364 -186 412 -289 18 -40 21
-70 24 -223 l4 -178 -945 0 -945 0 -10 48 c-6 26 -21 99 -33 162 l-22 115 218
300 c120 165 236 324 257 353 31 41 43 51 61 47 12 -2 60 -12 107 -21z m-1770
-331 l253 -348 -22 -115 c-12 -63 -27 -136 -33 -163 l-10 -47 -945 0 -945 0 4
178 c6 277 20 297 324 450 404 203 680 308 969 368 61 12 120 23 131 23 17 1
76 -74 274 -346z m792 -15 l97 -223 -196 -3 c-108 -1 -198 -1 -200 2 -5 4 190
446 197 446 3 0 49 -100 102 -222z m174 -445 c3 -21 14 -77 24 -125 l17 -88
-318 0 -319 0 5 23 c7 30 45 218 45 223 0 2 121 4 270 4 l269 0 7 -37z"/>
</g>
</svg>
