<?xml version="1.0" standalone="no"?>
<!DOCTYPE svg PUBLIC "-//W3C//DTD SVG 20010904//EN"
 "http://www.w3.org/TR/2001/REC-SVG-20010904/DTD/svg10.dtd">
<svg version="1.0" xmlns="http://www.w3.org/2000/svg"
 width="46.000000pt" height="60.000000pt" viewBox="0 0 46.000000 60.000000"
 preserveAspectRatio="xMidYMid meet">

<g transform="translate(0.000000,60.000000) scale(0.100000,-0.100000)"
fill="#ff8000" stroke="none">
<path d="M163 590 c-36 -15 -50 -50 -58 -137 -6 -75 -4 -85 19 -132 39 -75 36
-85 -39 -126 -74 -42 -85 -57 -85 -115 0 -38 3 -42 37 -58 55 -24 331 -24 386
0 35 16 37 20 37 61 0 54 -20 76 -100 117 -71 36 -73 47 -30 121 30 50 31 54
24 136 -9 113 -27 135 -110 140 -32 1 -69 -1 -81 -7z m122 -24 c38 -16 40 -23
50 -127 4 -44 3 -69 -4 -74 -19 -11 -51 -83 -51 -113 0 -34 17 -51 87 -86 86
-43 99 -100 28 -125 -54 -19 -276 -19 -330 0 -69 24 -55 88 28 130 86 43 95
72 52 161 -22 45 -25 62 -20 113 10 96 13 105 48 120 41 18 70 18 112 1z"/>
</g>
</svg>
