<?xml version="1.0" standalone="no"?>
<!DOCTYPE svg PUBLIC "-//W3C//DTD SVG 20010904//EN"
 "http://www.w3.org/TR/2001/REC-SVG-20010904/DTD/svg10.dtd">
<svg version="1.0" xmlns="http://www.w3.org/2000/svg"
 width="288.000000pt" height="331.000000pt" viewBox="0 0 288.000000 331.000000"
 preserveAspectRatio="xMidYMid meet">

<g transform="translate(0.000000,331.000000) scale(0.100000,-0.100000)"
fill="#000000" stroke="none">
<path d="M1561 3288 c-24 -11 -55 -38 -70 -58 -14 -20 -156 -280 -316 -578
l-290 -541 -375 -1 c-419 -1 -432 -2 -481 -71 l-24 -34 -3 -946 -2 -946 23
-34 c12 -18 38 -44 56 -56 l34 -23 1194 0 c1168 0 1195 0 1232 20 22 11 50 36
62 57 23 37 24 47 27 270 l3 233 45 0 c31 0 50 6 64 20 19 19 20 33 20 278 0
298 0 297 -80 308 l-50 7 0 236 c-1 290 -10 325 -97 370 l-32 16 182 335 c169
312 181 339 185 396 5 69 -15 119 -65 165 -23 22 -843 473 -1040 573 -67 33
-140 35 -202 4z m177 -138 l53 -31 -55 -102 c-30 -56 -187 -347 -349 -647
l-293 -545 -107 -3 c-59 -1 -107 -1 -107 1 0 15 716 1326 732 1340 29 25 66
21 126 -13z m240 -132 c31 -17 58 -33 60 -34 2 -1 -137 -264 -310 -583 l-313
-581 -88 0 -88 0 29 53 c16 28 161 295 322 592 303 560 317 585 325 585 3 0
31 -14 63 -32z m455 -250 c144 -77 272 -150 285 -161 12 -11 22 -30 22 -42 0
-11 -87 -183 -194 -380 l-194 -360 -391 -3 c-215 -1 -391 1 -391 4 0 15 584
1084 593 1084 4 0 126 -64 270 -142z m-1634 -805 c0 -5 -17 -37 -38 -73 l-37
-65 -297 -3 -297 -2 0 68 c0 38 3 72 7 75 9 10 663 9 662 0z m1685 -299 c3 -9
6 -118 6 -243 l0 -228 -147 -5 c-160 -5 -185 -12 -235 -65 -49 -51 -58 -89
-58 -246 0 -128 2 -147 22 -187 13 -24 40 -58 61 -74 l39 -31 159 -3 159 -3 0
-213 c0 -168 -3 -216 -14 -225 -10 -8 -325 -10 -1177 -9 l-1164 3 -3 760 c-1
418 0 766 3 773 3 9 247 12 1174 12 1057 0 1169 -2 1175 -16z m136 -784 l0
-170 -198 0 c-155 0 -202 3 -218 14 -17 13 -19 27 -19 154 0 103 4 143 14 155
12 15 40 17 217 17 l204 0 0 -170z"/>
<path d="M2310 2609 c-40 -16 -80 -60 -113 -124 -60 -117 -33 -215 74 -269 90
-44 189 -27 238 43 35 49 71 134 71 169 0 37 -23 98 -48 125 -48 54 -158 81
-222 56z m114 -132 c25 -18 23 -57 -5 -108 -27 -48 -49 -58 -86 -38 -41 22
-46 44 -22 91 12 24 26 49 31 56 14 16 59 15 82 -1z"/>
</g>
</svg>
