<?xml version="1.0" encoding="utf-8"?>
<svg xmlns="http://www.w3.org/2000/svg"
	xmlns:xlink="http://www.w3.org/1999/xlink"
	width="43px" height="50px" viewBox="0 0 43 50">
<path fillRule="evenodd" d="M 42.63 12.83C 42.63 12.83 37.37 22.66 37.37 22.66 38.44 22.9 39.28 23.93 39.28 25.08 39.28 25.08 39.28 32.13 39.28 32.13 39.28 32.13 40.3 32.13 40.3 32.13 40.84 32.13 41.25 32.56 41.25 33.1 41.25 33.1 41.25 40.28 41.25 40.28 41.25 40.82 40.84 41.24 40.3 41.24 40.3 41.24 39.28 41.24 39.28 41.24 39.28 41.24 39.28 47.52 39.28 47.52 39.28 48.9 38.21 49.99 36.83 49.99 36.83 49.99 2.45 49.99 2.45 49.99 1.08 49.99-0 48.9-0 47.52-0 47.52-0 25.02-0 25.02-0 25.02-0 20.67-0 20.67-0 19.28 1.08 18.2 2.45 18.2 2.45 18.2 13.21 18.2 13.21 18.2 13.21 18.2 22.06 1.61 22.06 1.61 22.84 0.16 24.81-0.44 26.25 0.34 26.25 0.34 41.37 8.61 41.37 8.61 42.87 9.45 43.41 11.32 42.63 12.83ZM 39.22 39.31C 39.22 39.31 39.28 39.31 39.28 39.31 39.28 39.31 39.28 34.06 39.28 34.06 39.28 34.06 39.22 34.06 39.22 34.06 39.22 34.06 33.6 34.06 33.6 34.06 33.06 34.06 32.65 34.49 32.65 35.03 32.65 35.03 32.65 38.35 32.65 38.35 32.65 38.89 33.06 39.31 33.6 39.31 33.6 39.31 39.22 39.31 39.22 39.31ZM 1.85 47.52C 1.85 47.82 2.09 48.06 2.39 48.06 2.39 48.06 36.77 48.06 36.77 48.06 37.07 48.06 37.31 47.82 37.31 47.52 37.31 47.52 37.31 41.24 37.31 41.24 37.31 41.24 33.6 41.24 33.6 41.24 32.05 41.24 30.73 39.98 30.73 38.35 30.73 38.35 30.73 35.03 30.73 35.03 30.73 33.46 31.99 32.13 33.6 32.13 33.6 32.13 37.25 32.13 37.25 32.13 37.25 32.13 37.25 25.08 37.25 25.08 37.25 24.77 37.01 24.53 36.71 24.53 36.71 24.53 35.69 24.53 35.69 24.53 35.69 24.53 22.24 24.53 22.24 24.53 22.24 24.53 15.25 24.53 15.25 24.53 15.25 24.53 11.42 24.53 11.42 24.53 11.42 24.53 2.39 24.53 2.39 24.53 2.09 24.53 1.85 24.77 1.85 25.08 1.85 25.08 1.85 47.52 1.85 47.52ZM 2.39 20.13C 2.09 20.13 1.85 20.43 1.85 20.61 1.85 20.61 1.85 22.6 1.85 22.6 2.03 22.54 2.21 22.54 2.39 22.54 2.39 22.54 10.82 22.54 10.82 22.54 10.82 22.54 12.14 20.13 12.14 20.13 12.14 20.13 2.39 20.13 2.39 20.13ZM 25.35 2.03C 24.81 1.73 24.1 1.97 23.8 2.52 23.8 2.52 13.03 22.6 13.03 22.6 13.03 22.6 16.32 22.6 16.32 22.6 16.32 22.6 26.85 2.88 26.85 2.88 26.85 2.88 25.35 2.03 25.35 2.03ZM 28.58 3.84C 28.58 3.84 18.47 22.6 18.47 22.6 18.47 22.6 21.17 22.6 21.17 22.6 21.17 22.6 30.61 4.93 30.61 4.93 30.61 4.93 28.58 3.84 28.58 3.84ZM 40.42 10.36C 40.42 10.36 32.29 5.89 32.29 5.89 32.29 5.89 23.32 22.6 23.32 22.6 23.32 22.6 35.16 22.6 35.16 22.6 35.16 22.6 40.9 11.87 40.9 11.87 41.2 11.32 41.02 10.6 40.42 10.36ZM 37.73 15.61C 37.25 16.39 36.41 16.93 35.46 16.93 35.04 16.93 34.62 16.81 34.26 16.63 34.26 16.63 33.78 16.39 33.78 16.39 33.18 16.09 32.71 15.54 32.53 14.88 32.29 14.22 32.41 13.49 32.71 12.89 32.71 12.89 33.3 11.74 33.3 11.74 33.96 10.54 35.57 10.06 36.77 10.72 36.77 10.72 37.25 10.96 37.25 10.96 38.44 11.62 38.92 13.19 38.33 14.46 38.33 14.46 37.73 15.61 37.73 15.61ZM 36.35 12.59C 36.35 12.59 35.87 12.35 35.87 12.35 35.75 12.29 35.69 12.29 35.57 12.29 35.34 12.29 35.1 12.47 34.98 12.65 34.98 12.65 34.38 13.8 34.38 13.8 34.26 13.92 34.26 14.1 34.32 14.28 34.38 14.4 34.5 14.58 34.62 14.64 34.62 14.64 35.1 14.94 35.1 14.94 35.4 15.12 35.81 15 35.99 14.7 35.99 14.7 36.59 13.55 36.59 13.55 36.71 13.19 36.59 12.83 36.35 12.59Z" fill="rgb(48,48,48)" opacity="0.90"/></svg>