<?xml version="1.0" encoding="UTF-8" standalone="no"?>
<!-- Created with Inkscape (http://www.inkscape.org/) -->

<svg
   xmlns:dc="http://purl.org/dc/elements/1.1/"
   xmlns:cc="http://creativecommons.org/ns#"
   xmlns:rdf="http://www.w3.org/1999/02/22-rdf-syntax-ns#"
   xmlns:svg="http://www.w3.org/2000/svg"
   xmlns="http://www.w3.org/2000/svg"
   xmlns:sodipodi="http://sodipodi.sourceforge.net/DTD/sodipodi-0.dtd"
   xmlns:inkscape="http://www.inkscape.org/namespaces/inkscape"
   width="173.90034mm"
   height="32.440571mm"
   viewBox="0 0 173.90034 32.440571"
   version="1.1"
   id="svg8"
   inkscape:version="0.92.1 r15371"
   sodipodi:docname="chebu.svg">
  <defs
     id="defs2" />
  <sodipodi:namedview
     id="base"
     pagecolor="#ffffff"
     bordercolor="#666666"
     borderopacity="1.0"
     inkscape:pageopacity="0.0"
     inkscape:pageshadow="2"
     inkscape:zoom="0.35"
     inkscape:cx="360.05914"
     inkscape:cy="-195.83784"
     inkscape:document-units="mm"
     inkscape:current-layer="layer1"
     showgrid="false"
     fit-margin-top="0"
     fit-margin-left="0"
     fit-margin-right="0"
     fit-margin-bottom="0"
     inkscape:window-width="1366"
     inkscape:window-height="745"
     inkscape:window-x="-5"
     inkscape:window-y="-5"
     inkscape:window-maximized="1" />
  <metadata
     id="metadata5">
    <rdf:RDF>
      <cc:Work
         rdf:about="">
        <dc:format>image/svg+xml</dc:format>
        <dc:type
           rdf:resource="http://purl.org/dc/dcmitype/StillImage" />
        <dc:title></dc:title>
      </cc:Work>
    </rdf:RDF>
  </metadata>
  <g
     inkscape:label="Layer 1"
     inkscape:groupmode="layer"
     id="layer1"
     transform="translate(-10.567687,-64.577334)">
    <g
       id="g10"
       transform="matrix(0.33072917,0,0,-0.33072917,-41.618196,174.50923)">
      <path
         d="m 178.8429,260.7746 c -27.4575,0.2824 -19.7745,38.3287 -18.9303,43.5768 l 18.0859,0.6562 c -0.5616,-4.0312 -4.0298,-30.6442 2.4358,-30.6442 0.657,0 1.0321,0.1876 1.4998,0.5626 l 0.1879,28.9557 19.4933,0.9377 -1.5948,-62.6942 -18.1797,-0.8419 0.0933,19.5852 c -0.7495,-0.0939 -1.4052,-0.0939 -2.1546,-0.0939 z"
         style="fill:#ffcd00;fill-opacity:1;fill-rule:nonzero;stroke:#281f01;stroke-width:1.00010002;stroke-linecap:butt;stroke-linejoin:miter;stroke-miterlimit:22.92558479;stroke-dasharray:none;stroke-opacity:1"
         id="path12"
         inkscape:connector-curvature="0" />
      <path
         d="m 241.3497,304.8194 -1.1251,-19.1172 c 0,0 -9.3716,-0.5624 -13.8696,-0.8447 v -4.2165 c 3.562,0.0935 10.6837,0.4697 10.6837,0.4697 l -0.4699,-15.5557 c 0,0 -5.7158,-0.0958 -10.2138,-0.1885 v -5.5296 l 12.8398,1.7805 c 0,0 -0.563,-13.3067 -0.7509,-18.5548 l -31.2061,-1.8751 0.2824,62.6942 z"
         style="fill:#ffcd00;fill-opacity:1;fill-rule:nonzero;stroke:#281f01;stroke-width:1.00010002;stroke-linecap:butt;stroke-linejoin:miter;stroke-miterlimit:22.92558479;stroke-dasharray:none;stroke-opacity:1"
         id="path14"
         inkscape:connector-curvature="0" />
      <path
         d="m 246.5986,303.8817 41.6083,0.9377 v -15.6493 h -22.7724 v -6.9355 c 0,0 3.0938,0.7501 7.3097,0.7501 8.0601,0 19.961,-2.9044 19.961,-21.0861 0,-16.8681 -14.1511,-21.6465 -28.114,-21.6465 -6.2782,0 -13.0252,0.9354 -18.0859,2.1543 z m 18.8359,-46.4811 v 0 h 0.4683 c 1.7813,0 7.685,-0.5616 7.685,4.4042 0,4.1241 -4.3109,4.7803 -6.6532,4.7803 -0.9374,0 -1.5001,-0.0947 -1.5001,-0.0947 z"
         style="fill:#ffcd00;fill-opacity:1;fill-rule:nonzero;stroke:#281f01;stroke-width:1.00010002;stroke-linecap:butt;stroke-linejoin:miter;stroke-miterlimit:22.92558479;stroke-dasharray:none;stroke-opacity:1"
         id="path16"
         inkscape:connector-curvature="0" />
      <path
         d="m 313.3227,263.1175 c -3.2816,5.8096 -22.3979,35.7984 -22.3979,35.7984 l 20.0537,4.8731 c 0,0 6.5602,-11.4333 9.8405,-22.5848 3.1858,11.1515 5.6213,22.7721 5.6213,22.7721 l 20.524,-4.1229 c 0,0 -11.9945,-32.2379 -12.3704,-32.1444 -0.3747,0.0939 -8.9019,-27.7381 -24.4584,-27.7381 -6.6535,0 -11.8078,3.5606 -15.463,8.5275 l 7.7788,18.4617 c 0.5624,-0.9374 3.7474,-5.6219 7.3094,-5.6219 1.1242,0 2.3434,0.4666 3.562,1.7793 z"
         style="fill:#ffcd00;fill-opacity:1;fill-rule:nonzero;stroke:#281f01;stroke-width:1.00010002;stroke-linecap:butt;stroke-linejoin:miter;stroke-miterlimit:22.92558479;stroke-dasharray:none;stroke-opacity:1"
         id="path18"
         inkscape:connector-curvature="0" />
      <path
         d="m 365.146,305.4756 c 7.0282,0.4677 29.5186,1.9678 29.5186,-22.3036 0,-24.3652 -25.3018,-22.7715 -25.3018,-22.7715 l -0.2812,-18.2753 -18.1805,-0.8419 c 0,0 0.5624,60.537 0.657,61.0056 0,0.0938 6.5603,2.7187 13.5879,3.1867 z m 4.7798,-29.1444 v 0 c 0,0 7.0279,-0.375 7.1218,5.0595 0.0929,6.092 -7.1218,4.6866 -7.0294,4.6866 0.0947,0 -0.0924,-9.7461 -0.0924,-9.7461 z"
         style="fill:#ffffff;fill-opacity:1;fill-rule:nonzero;stroke:#281f01;stroke-width:1.00010002;stroke-linecap:butt;stroke-linejoin:miter;stroke-miterlimit:22.92558479;stroke-dasharray:none;stroke-opacity:1"
         id="path20"
         inkscape:connector-curvature="0" />
      <path
         d="m 428.0289,304.8194 c 0,0 14.1495,-60.0701 14.336,-60.0701 0.1885,0 -18.6463,-3.1848 -18.6463,-3.3733 0,-0.0927 -0.6574,4.1242 -1.3136,9.6534 l -8.8078,0.1857 c -0.8442,-5.6222 -1.5936,-9.9318 -1.5936,-9.9318 -0.1871,-0.0958 -18.368,2.2482 -18.368,2.2482 0,0 14.4323,60.2575 14.5256,60.3502 0.0947,0.0946 19.8677,0.9377 19.8677,0.9377 z M 417.439,276.4242 v 0 c 0,0 -0.6562,-4.1233 -1.4051,-9.3714 h 4.31 c -0.7486,5.2481 -1.2169,9.5587 -1.2169,9.5587 z"
         style="fill:#ffffff;fill-opacity:1;fill-rule:nonzero;stroke:#281f01;stroke-width:1.00010002;stroke-linecap:butt;stroke-linejoin:miter;stroke-miterlimit:22.92558479;stroke-dasharray:none;stroke-opacity:1"
         id="path22"
         inkscape:connector-curvature="0" />
      <path
         d="m 489.8798,304.7244 2.3425,0.095 h 0.4689 l -0.4689,-43.9509 4.9677,0.4697 0.3742,42.6381 18.1806,0.8431 -0.2812,-61.6629 -67.3798,-1.8732 0.2812,62.7869 19.4921,0.7492 -0.4685,-43.9509 5.6228,0.3739 0.1876,42.8278 z"
         style="fill:#ffffff;fill-opacity:1;fill-rule:nonzero;stroke:#281f01;stroke-width:1.00010002;stroke-linecap:butt;stroke-linejoin:miter;stroke-miterlimit:22.92558479;stroke-dasharray:none;stroke-opacity:1"
         id="path24"
         inkscape:connector-curvature="0" />
      <path
         d="m 556.698,304.8194 c 0,0 14.1495,-60.0701 14.3368,-60.0701 0.1897,0 -18.6463,-3.1848 -18.6463,-3.3733 0,-0.0927 -0.6565,4.1242 -1.3124,9.6534 l -8.8107,0.1857 c -0.8418,-5.6222 -1.5927,-9.9318 -1.5927,-9.9318 -0.1866,-0.0958 -18.3663,2.2482 -18.3663,2.2482 0,0 14.4306,60.2575 14.5233,60.3502 0.0958,0.0946 19.8683,0.9377 19.8683,0.9377 z m -10.5899,-28.3952 v 0 c 0,0 -0.6554,-4.1233 -1.4051,-9.3714 h 4.3103 c -0.7489,5.2481 -1.2166,9.5587 -1.2166,9.5587 z"
         style="fill:#ffffff;fill-opacity:1;fill-rule:nonzero;stroke:#281f01;stroke-width:1.00010002;stroke-linecap:butt;stroke-linejoin:miter;stroke-miterlimit:22.92558479;stroke-dasharray:none;stroke-opacity:1"
         id="path26"
         inkscape:connector-curvature="0" />
      <path
         d="m 634.7214,328.5899 c 2.6983,1.4802 5.506,2.2342 8.6046,1.5497 -0.4865,-0.1474 -0.9726,-0.294 -1.459,-0.4405 1.7481,0.002 3.2694,-0.4454 4.5351,-1.9727 -0.4238,-0.0587 -0.669,-0.0918 -0.9581,-0.1309 0.0899,-0.0859 0.1417,-0.1798 0.212,-0.1934 2.8789,-0.5683 5.3603,-1.9882 7.7675,-3.5898 0.2189,-0.1465 0.7246,-0.0898 0.9689,0.0703 1.211,0.7872 2.3769,1.6416 3.6717,2.3888 -0.5156,-0.6466 -1.0312,-1.2932 -1.5468,-1.9375 0.0331,-0.0487 0.0626,-0.0975 0.0958,-0.1465 0.6602,0.4493 1.324,0.8986 1.9882,1.3476 0.0363,-0.0956 0.0879,-0.2322 0.0898,-0.2322 0.8604,0.4666 1.7275,0.9374 2.5957,1.406 0.044,-0.0723 0.0899,-0.1443 0.135,-0.2186 -0.1917,-0.1729 -0.383,-0.3458 -0.6438,-0.5859 1.4182,0.1874 2.7278,0.3611 4.0383,0.5341 0.0263,-0.0967 0.0527,-0.1953 0.0779,-0.294 -0.4258,-0.2217 -0.8544,-0.4445 -1.2813,-0.6661 0.012,-0.0828 0.0236,-0.1639 0.0372,-0.2449 0.4493,0.0399 0.9034,0.1366 1.3496,0.1082 1.2189,-0.0742 2.4386,-0.1757 3.6484,-0.3339 0.1953,-0.0255 0.3467,-0.3926 0.6798,-0.7999 2.6651,0.1573 5.1318,-0.8603 7.0937,-3.1434 -0.1698,-0.0762 -0.2928,-0.1329 -0.4865,-0.2188 0.9074,-0.6542 1.7757,-1.2793 2.6955,-1.9434 -0.2069,-0.1327 -0.3829,-0.2461 -0.5995,-0.3867 0.9062,-0.919 2.2323,-1.3963 2.4979,-2.961 -0.3203,0.2344 -0.546,0.3994 -0.7713,0.5655 4.0887,-5.4051 4.4472,-11.4767 3.2227,-17.9657 -0.2152,0.2324 -0.3558,0.3846 -0.5939,0.6434 -0.1074,-0.8898 -0.2032,-1.6659 -0.2988,-2.4431 -0.0822,0.0538 -0.1641,0.1065 -0.2451,0.1612 -0.1163,-0.1357 -0.288,-0.252 -0.3391,-0.4081 -0.2936,-0.8791 -0.6055,-1.7541 -0.8183,-2.6536 -0.4354,-1.8348 -2.1073,-2.8034 -3.0427,-4.3506 -0.0236,0.1653 -0.0488,0.3322 -0.0871,0.6066 -1.1905,-1.2469 -1.9287,-2.8272 -3.6405,-3.3485 0.2452,0.3271 0.4912,0.6562 0.7381,0.9833 -0.0555,0.0556 -0.1114,0.1103 -0.1669,0.165 -1.4862,-1.3456 -2.9707,-2.6912 -4.4941,-4.0723 -0.1485,0.2637 -0.2304,0.4082 -0.3155,0.5576 -0.9541,-0.4521 -1.8876,-0.8915 -2.999,-1.4179 0.0859,0.4317 0.121,0.6103 0.1718,0.8635 -0.1503,-0.0627 -0.2226,-0.091 -0.2948,-0.1242 -0.8088,-0.375 -1.5908,-0.8459 -2.4376,-1.0919 -0.4237,-0.123 -1.074,-0.7393 -1.5312,0.2803 -0.1191,0.2648 -1.3281,0.04 -2.1563,0.04 0.8231,-1.1914 1.5976,-2.3085 2.4806,-3.5838 -0.3603,0.0759 -0.5117,0.1054 -0.6095,0.127 0.3575,-0.8927 0.883,-1.7757 1.0392,-2.7188 0.1446,-0.8702 -0.0607,-1.8155 -0.214,-2.709 -0.0496,-0.2863 -0.4346,-0.5137 -0.8037,-0.9238 -0.0615,-0.2209 -0.1873,-0.6778 -0.3123,-1.1339 -0.1058,-0.0459 -0.2092,-0.091 -0.3127,-0.1366 -0.119,0.1961 -0.2404,0.3914 -0.3475,0.5683 -0.7912,-4.089 -4.7755,-6.0987 -7.7854,-5.5244 0.8048,-3.4288 1.6036,-6.8261 2.4024,-10.2257 -0.4609,0.2217 -0.9882,0.4756 -1.7107,0.8251 0.1386,-1.9394 -0.6409,-3.3749 -1.7189,-4.7069 1.8595,-0.3914 2.6503,-1.0292 2.1659,-1.5976 1.0449,-1.3124 2.1623,-2.5585 3.0918,-3.9297 0.7188,-1.0627 1.2188,-2.2765 1.788,-3.4355 0.552,-1.1288 -0.0671,-2.0861 -0.5017,-3.0654 -0.0743,-0.169 -0.1261,-0.3722 -0.1066,-0.55 0.1953,-1.8133 -0.2313,-2.5857 -1.961,-3.3162 -2.1347,-0.9062 -4.4118,-1.1563 -6.6991,-1.3048 -3.2618,-0.2109 -6.4825,0.1406 -9.6786,0.7736 -0.2452,0.0487 -0.665,-0.0156 -0.7688,-0.1789 -0.4821,-0.7469 -1.2225,-0.9266 -1.9941,-0.9864 -1.7558,-0.1375 -3.5156,-0.2138 -5.2733,-0.3252 -4.0488,-0.2557 -8.0958,-0.2764 -12.1317,0.163 -2.6867,0.2943 -5.2025,1.0588 -7.2179,3.0138 -0.5448,0.5264 -0.6973,1.0576 -0.5117,1.8252 0.1806,0.7441 -0.0283,1.59 0.1834,2.3193 0.6251,2.1552 1.8732,3.9377 3.5275,5.4562 0.413,0.377 0.6621,0.9266 1,1.3867 0.3898,0.5352 0.7149,1.1523 1.2079,1.5704 1.0324,0.8787 2.1563,1.6523 3.0889,2.3524 -0.8603,0.8136 -1.6563,1.5625 -2.4511,2.3134 -0.0664,0.0646 -0.1191,0.2149 -0.1698,0.2089 -1.4239,-0.1023 -1.385,1.1838 -1.9375,2.0588 -0.0822,-0.2372 -0.1446,-0.411 -0.2052,-0.5859 -0.0939,-0.0315 -0.1846,-0.0646 -0.2773,-0.0958 -0.498,1.0448 -0.9972,2.0888 -1.5077,3.1601 -0.1145,-0.1934 -0.256,-0.4355 -0.5119,-0.872 -0.1993,0.421 -0.3847,0.6817 -0.4493,0.9678 -0.2997,1.3847 -0.0644,2.711 0.5646,3.9571 0.2186,0.4334 0.2537,0.7197 -0.0663,1.1483 -1.4386,1.9143 -1.4202,1.9299 -0.0901,3.9181 2.2149,3.3162 4.8378,6.2597 7.9806,8.7284 0.1914,0.1505 0.3731,0.3144 0.4298,0.3614 -1.3851,0.2265 -2.8557,0.4666 -4.2169,0.6894 0.0428,-0.0586 0.2325,-0.3143 0.4218,-0.5711 -0.0487,-0.0743 -0.0978,-0.1494 -0.1445,-0.2217 -0.6934,0.324 -1.3848,0.6503 -1.9344,0.9079 -0.8167,-1.7634 -1.633,-3.5291 -2.5461,-5.4969 -0.2647,0.3878 -0.3543,0.5164 -0.4238,0.6202 -0.8399,-0.9921 -1.6922,-1.9993 -2.5449,-3.0059 -0.0488,0.0253 -0.0975,0.0516 -0.1466,0.074 0.0451,0.3047 0.091,0.6095 0.1525,1.012 -7.1818,-5.1662 -14.6602,-8.3789 -23.5255,-4.5978 0.1681,-0.1777 0.339,-0.3555 0.6366,-0.6698 -1.5996,0.1885 -2.0701,1.6815 -3.2575,2.2442 0,-0.3107 0,-0.5939 0,-1.09 -2.2561,1.3173 -3.5431,3.4061 -5.296,5.1679 0,-0.3419 0,-0.5644 0,-0.9502 -1.8369,1.5851 -2.4248,3.6748 -3.2978,5.5312 -0.2364,0.1985 -0.6279,0.3603 -0.6838,0.6016 -0.2049,0.8642 -0.2792,1.7589 -0.4317,2.6359 -0.1034,0.5975 -0.3279,1.1815 -0.369,1.7813 -0.0624,0.9315 -0.0156,1.8709 -0.0156,2.95 -0.1797,-0.5105 -0.3155,-0.8906 -0.4473,-1.2705 -1.1827,4.7755 -0.8045,9.2197 2.5381,13.076 -0.087,0.0243 -0.1746,0.047 -0.2648,0.0714 0.0511,0.2888 0.007,0.6471 0.1642,0.8543 1.4746,1.9316 2.9834,3.8359 4.5606,5.8476 0.005,0.0576 -0.0742,0.4553 0.0743,0.5803 0.6279,0.5312 1.3153,0.9961 2.0018,1.457 0.3008,0.203 0.6486,0.3368 0.9199,0.6602 -0.7206,-0.252 -1.4414,-0.504 -2.16,-0.754 -0.0312,0.0819 -0.0607,0.1641 -0.0919,0.246 2.1288,2.0001 4.3691,3.7639 7.6933,3.4024 -0.0956,0.2764 -0.1619,0.4697 -0.2617,0.7597 1.0332,0.0567 2.0038,0.1086 2.9727,0.1622 0.0312,0.0567 0.0644,0.1114 0.0958,0.1681 -0.3282,0.1649 -0.6542,0.3308 -0.9629,0.4881 0.7225,1.0959 1.6211,1.2013 2.4599,1.2305 1.3232,0.0479 2.6532,-0.0782 3.9796,-0.087 0.6454,-0.005 1.2968,-0.4414 1.9658,0.1318 0.1885,0.1633 0.7996,-0.0128 1.1307,-0.1933 1.0752,-0.5888 2.1076,-1.2529 3.1173,-1.8641 0.4952,0.9374 1.0497,1.9882 1.624,3.0779 -0.0939,0.0175 -0.2696,0.0499 -0.6611,0.1213 0.4726,0.6562 0.87,1.2078 1.3037,1.8105 -0.3203,-0.1066 -0.6251,-0.2081 -0.9454,-0.3155 0.2911,1.2597 2.2051,3.0175 6.5625,6.0372 -0.3847,0.127 -0.7393,0.1914 -1.0332,0.3623 -0.2852,0.163 -0.5088,0.4365 -0.7322,0.6347 2.1501,0.5575 4.1845,1.0851 6.4471,1.6679 -0.4493,0.3838 -0.6307,0.5431 -0.953,0.8195 2.3494,1.3994 4.8025,2.1739 7.323,2.8301 -0.8495,0.0448 -1.6962,0.0898 -2.5486,0.1338 0.79,1.0811 3.6258,1.5185 6.9987,1.0732 -0.1737,0.3242 -0.3379,0.6318 -0.5037,0.9385 0.0508,0.0723 0.1006,0.1434 0.1503,0.2149 0.8906,-0.4836 1.7812,-0.9681 2.7226,-1.4797 0.0451,0.502 0.089,1.0273 0.135,1.5517 0.081,0.0286 0.1621,0.0558 0.244,0.083 0.2364,-0.4002 0.4717,-0.8008 0.7589,-1.2869 0.4989,2.0565 1.9482,3.0059 3.9013,3.6972 -0.6055,-0.8008 -1.0936,-1.4502 -1.5832,-2.0976 1.1906,0.7109 2.3528,1.2285 3.8841,0.8906 -1.2833,-0.7443 -2.6544,-1.2013 -3.2902,-2.5956 z m -16.6397,-63.0017 v 0 c -26.5858,-8.8447 -31.8007,30.418 -32.7302,35.7613 l 17.2341,6.6367 c 0.794,-4.0762 6.2833,-30.9058 12.5234,-28.7594 0.633,0.2185 0.9318,0.5232 1.2598,1.0409 l -9.4335,28.0017 18.4981,7.3752 19.2744,-61.0206 -17.2607,-6.8485 -6.4122,18.9287 c -0.6914,-0.3388 -1.3261,-0.5576 -2.0489,-0.8056 z m 37.3352,41.6919 v 0 l 3.3857,-12.321 c 0,0 -6.2246,-2.5371 -9.2109,-3.7636 l 0.9138,-2.66 c 2.3936,0.8886 7.1368,2.785 7.1368,2.785 l 3.0566,-9.9198 c 0,0 -3.8494,-1.3927 -6.8768,-2.5002 l 1.2002,-3.4883 8.3094,4.1162 c 0,0 2.5059,-8.5244 3.5176,-11.8789 l -20.7312,-8.454 -13.4133,39.609 z"
         style="fill:#ffcd00;fill-opacity:1;fill-rule:evenodd;stroke:none"
         id="path28"
         inkscape:connector-curvature="0" />
      <path
         d="m 369.3628,260.4005 c 0,0 25.3018,-1.5937 25.3018,22.7715 0,24.2714 -22.4904,22.7713 -29.5186,22.3036 -7.0276,-0.468 -13.5879,-3.0929 -13.5879,-3.1867 -0.0946,-0.4686 -0.657,-61.0056 -0.657,-61.0056 l 18.1805,0.8419 z m 7.6848,20.9902 c -0.0939,-5.4345 -7.1218,-5.0595 -7.1218,-5.0595 0,0 0.1871,9.7461 0.0924,9.7461 -0.0924,0 7.1223,1.4054 7.0294,-4.6866 z"
         style="fill:#7788a1;fill-opacity:1;fill-rule:evenodd;stroke:#e73a39;stroke-width:0.21600001;stroke-linecap:butt;stroke-linejoin:miter;stroke-miterlimit:22.92558479;stroke-dasharray:none;stroke-opacity:1"
         id="path30"
         inkscape:connector-curvature="0" />
      <path
         d="m 408.1612,303.8817 c -0.0933,-0.0927 -14.5256,-60.3502 -14.5256,-60.3502 0,0 18.1809,-2.344 18.368,-2.2482 0,0 0.7494,4.3096 1.5936,9.9318 l 8.8078,-0.1857 c 0.6562,-5.5292 1.3136,-9.7461 1.3136,-9.6534 0,0.1885 18.8348,3.3733 18.6463,3.3733 -0.1865,0 -14.336,60.0701 -14.336,60.0701 0,0 -19.773,-0.8431 -19.8677,-0.9377 z m 7.8727,-36.8289 c 0.7489,5.2481 1.4051,9.3714 1.4051,9.3714 l 1.688,0.1873 c 0,0 0.4683,-4.3106 1.2169,-9.5587 z"
         style="fill:#7788a1;fill-opacity:1;fill-rule:evenodd;stroke:#e73a39;stroke-width:0.21600001;stroke-linecap:butt;stroke-linejoin:miter;stroke-miterlimit:22.92558479;stroke-dasharray:none;stroke-opacity:1"
         id="path32"
         inkscape:connector-curvature="0" />
      <path
         d="m 448.365,304.0702 -0.2812,-62.7869 67.3798,1.8732 0.2812,61.6629 -18.1806,-0.8431 -0.3742,-42.6381 -4.9677,-0.4697 0.4689,43.9509 h -0.4689 l -2.3425,-0.095 -16.6808,-0.6542 -0.1876,-42.8278 -5.6228,-0.3739 0.4685,43.9509 z"
         style="fill:#7788a1;fill-opacity:1;fill-rule:evenodd;stroke:#e73a39;stroke-width:0.21600001;stroke-linecap:butt;stroke-linejoin:miter;stroke-miterlimit:22.92558479;stroke-dasharray:none;stroke-opacity:1"
         id="path34"
         inkscape:connector-curvature="0" />
      <path
         d="m 536.8297,303.8817 c -0.0927,-0.0927 -14.5233,-60.3502 -14.5233,-60.3502 0,0 18.1797,-2.344 18.3663,-2.2482 0,0 0.7509,4.3096 1.5927,9.9318 l 8.8107,-0.1857 c 0.6559,-5.5292 1.3124,-9.7461 1.3124,-9.6534 0,0.1885 18.836,3.3733 18.6463,3.3733 -0.1873,0 -14.3368,60.0701 -14.3368,60.0701 0,0 -19.7725,-0.8431 -19.8683,-0.9377 z m 7.8733,-36.8289 c 0.7497,5.2481 1.4051,9.3714 1.4051,9.3714 l 1.6886,0.1873 c 0,0 0.4677,-4.3106 1.2166,-9.5587 z"
         style="fill:#7788a1;fill-opacity:1;fill-rule:evenodd;stroke:#e73a39;stroke-width:0.21600001;stroke-linecap:butt;stroke-linejoin:miter;stroke-miterlimit:22.92558479;stroke-dasharray:none;stroke-opacity:1"
         id="path36"
         inkscape:connector-curvature="0" />
      <path
         d="m 606.9353,308.2694 9.4335,-28.0017 c -0.328,-0.5177 -0.6268,-0.8224 -1.2598,-1.0409 -6.2401,-2.1464 -11.7294,24.6832 -12.5234,28.7594 l -17.2341,-6.6367 c 0.6993,-4.0204 3.8248,-27.2441 16.6547,-34.7292 3.3389,1.0916 6.5304,2.9743 9.6655,5.2296 l -0.1525,-1.012 0.1466,-0.074 2.5449,3.0059 0.4238,-0.6202 2.5461,5.4969 1.9344,-0.9079 0.1445,0.2217 -0.4218,0.5711 4.2169,-0.6894 c -0.0567,-0.047 -0.2384,-0.2109 -0.4298,-0.3614 -3.1428,-2.4687 -5.7657,-5.4122 -7.9806,-8.7284 -1.3301,-1.9882 -1.3485,-2.0038 0.0901,-3.9181 0.03,-0.0402 0.0573,-0.0793 0.0811,-0.1176 1.0513,0.2084 2.1396,0.4969 3.2663,0.8717 l 0.9043,0.3104 c 0.7228,0.248 1.3575,0.4668 2.0489,0.8056 l 6.4122,-18.9287 17.2607,6.8485 -19.2744,61.0206 z"
         style="fill:#7788a1;fill-opacity:1;fill-rule:evenodd;stroke:#e73a39;stroke-width:0.21600001;stroke-linecap:butt;stroke-linejoin:miter;stroke-miterlimit:22.92558479;stroke-dasharray:none;stroke-opacity:1"
         id="path38"
         inkscape:connector-curvature="0" />
      <path
         d="m 632.7048,298.8045 13.4133,-39.609 8.3633,3.4103 -0.9173,3.9042 c 3.0099,-0.5743 6.9942,1.4354 7.7854,5.5244 l 0.3475,-0.5683 0.3127,0.1366 0.3123,1.1339 c 0.3691,0.4101 0.7541,0.6375 0.8037,0.9238 0.1533,0.8935 0.3586,1.8388 0.214,2.709 -0.1528,0.9224 -0.6588,1.7873 -1.0154,2.6598 l -7.302,-3.617 -1.2002,3.4883 c 3.0274,1.1075 6.8768,2.5002 6.8768,2.5002 l -3.0566,9.9198 c 0,0 -4.7432,-1.8964 -7.1368,-2.785 l -0.9138,2.66 c 2.9863,1.2265 9.2109,3.7636 9.2109,3.7636 l -3.3857,12.321 z"
         style="fill:#7788a1;fill-opacity:1;fill-rule:evenodd;stroke:#e73a39;stroke-width:0.21600001;stroke-linecap:butt;stroke-linejoin:miter;stroke-miterlimit:22.92558479;stroke-dasharray:none;stroke-opacity:1"
         id="path40"
         inkscape:connector-curvature="0" />
    </g>
  </g>
</svg>
